<svg width="73" height="120" viewBox="0 0 73 120" fill="none" xmlns="http://www.w3.org/2000/svg">
<path d="M1.5 0H70.5C70.5 0 71.0489 15.5 69.5489 21C68.0489 26.5 72.0489 48 72.0489 48C72.0489 48 73.0489 66 71.5489 69C70.0489 72 71.5489 82.5 71.5489 89C71.5489 95.5 70.5489 100.5 69.5489 105C68.5489 109.5 72.0489 120 72.0489 120H3.04889C3.04889 120 5.54889 109.5 5.04889 102.5C4.54889 95.5 0.0488889 74 0.0488889 66C0.0488889 58 3.04889 47 3.04889 40C3.04889 33 -0.451111 28.5 0.0488889 18.5C0.548889 8.5 1.5 0 1.5 0Z" fill="#3F006F"/>
</svg>
