<svg width="44" height="44" viewBox="0 0 44 44" fill="none" xmlns="http://www.w3.org/2000/svg">
<path d="M32.2481 27.5L11.7514 27.5C11.3888 27.4985 11.0348 27.3895 10.7342 27.1868C10.4336 26.9841 10.1998 26.6968 10.0624 26.3612C9.92506 26.0257 9.89028 25.6569 9.96249 25.3016C10.0347 24.9463 10.2106 24.6203 10.4681 24.365L20.6981 14.135C20.8685 13.9632 21.0713 13.8268 21.2947 13.7337C21.5181 13.6406 21.7577 13.5927 21.9998 13.5927C22.2418 13.5927 22.4814 13.6406 22.7048 13.7337C22.9282 13.8268 23.131 13.9632 23.3014 14.135L33.5314 24.365C33.7889 24.6203 33.9648 24.9463 34.037 25.3016C34.1092 25.6569 34.0744 26.0257 33.9371 26.3612C33.7997 26.6968 33.5659 26.9841 33.2653 27.1868C32.9647 27.3895 32.6107 27.4985 32.2481 27.5Z" fill="#3F006F"/>
</svg>
