<svg width="44" height="44" viewBox="0 0 44 44" fill="none" xmlns="http://www.w3.org/2000/svg">
<path d="M11.7519 16.5L32.2486 16.5C32.6112 16.5015 32.9652 16.6105 33.2658 16.8132C33.5664 17.0159 33.8002 17.3032 33.9376 17.6388C34.0749 17.9743 34.1097 18.3431 34.0375 18.6984C33.9653 19.0537 33.7894 19.3797 33.5319 19.635L23.3019 29.865C23.1315 30.0368 22.9287 30.1732 22.7053 30.2663C22.4819 30.3594 22.2423 30.4073 22.0002 30.4073C21.7582 30.4073 21.5186 30.3594 21.2952 30.2663C21.0718 30.1732 20.869 30.0368 20.6986 29.865L10.4686 19.635C10.2111 19.3797 10.0352 19.0537 9.96299 18.6984C9.89078 18.3431 9.92556 17.9743 10.0629 17.6388C10.2003 17.3032 10.4341 17.0159 10.7347 16.8132C11.0353 16.6105 11.3893 16.5015 11.7519 16.5Z" fill="#3F006F"/>
</svg>
