<svg width="341" height="107" viewBox="0 0 341 107" fill="none" xmlns="http://www.w3.org/2000/svg">
<path d="M5.56329 22.0989C6.43178 9.66912 18.52 1.40065 30.9763 1.08999C58.1285 0.412829 104.126 -0.524864 121.989 0.362277C148.042 1.65613 247.778 4.11444 265.69 2.94997C278.844 2.0948 310.441 1.79788 326.297 1.70048C331.593 1.66795 335.938 5.78429 335.978 11.0801C336.006 14.8338 335.955 19.4474 335.708 24.4279C335.084 36.9782 338.438 53.5 338.438 53.5C338.438 53.5 341 78.5107 341 81.8747C341 95.3234 326.525 104.032 313.079 104.288C282.991 104.861 231.355 105.912 211.955 106.717C183.866 107.881 110.591 105.164 90.2366 103.87C73.7384 102.821 31.2968 103.473 15.8086 103.757C12.2355 103.823 8.89391 101.994 7.15567 98.8718C4.55371 94.1979 1.02322 87.381 0.271205 83.5567C-0.950045 77.3462 2.34913 55.357 2.34914 47.9926C2.34916 40.6283 5.15648 27.9212 5.56329 22.0989Z" fill="#FFD800"/>
</svg>
