<svg width="40" height="40" viewBox="0 0 40 40" fill="none" xmlns="http://www.w3.org/2000/svg">
<path d="M28.0333 34.6133L6.25501 6.61333C6.14022 6.46552 6.06922 6.28845 6.05008 6.10228C6.03093 5.91611 6.06442 5.72831 6.14672 5.56022C6.22903 5.39214 6.35685 5.25053 6.51565 5.15149C6.67445 5.05245 6.85786 4.99997 7.04501 5H11.1783C11.3305 5.00023 11.4806 5.03517 11.6172 5.10218C11.7538 5.16919 11.8733 5.26649 11.9667 5.38667L33.745 33.3867C33.8598 33.5345 33.9308 33.7115 33.9499 33.8977C33.9691 34.0839 33.9356 34.2717 33.8533 34.4398C33.771 34.6079 33.6432 34.7495 33.4844 34.8485C33.3256 34.9475 33.1422 35 32.955 35H28.8217C28.6695 34.9998 28.5194 34.9648 28.3828 34.8978C28.2462 34.8308 28.1267 34.7335 28.0333 34.6133Z" stroke="#FFD800" stroke-width="1.5"/>
<path d="M33.3333 5L6.66667 35" stroke="#FFD800" stroke-width="1.5" stroke-linecap="round"/>
</svg>
