<svg width="281" height="79" viewBox="0 0 281 79" fill="none" xmlns="http://www.w3.org/2000/svg">
<path d="M20.2741 17.7362L19.6426 49.4661C19.6426 49.7323 19.4716 49.9791 19.1296 50.209L17.0089 50.4953L16.4921 50.1533V17.7362C16.4921 17.661 16.5517 17.5852 16.6669 17.5062C16.7784 17.4304 16.8936 17.3915 17.0089 17.3915H19.5869C20.0436 17.3915 20.2741 17.5062 20.2741 17.7362Z" fill="#3F006F"/>
<path d="M37.9675 15.444H35.5075C35.2776 15.444 35.1628 15.5592 35.1628 15.7892V35.375C35.1628 35.5655 35.2776 35.6612 35.5075 35.6612H37.9675C38.1981 35.6612 38.3128 35.546 38.3128 35.3192V15.7892C38.3128 15.5592 38.1981 15.444 37.9675 15.444ZM37.9675 15.444H35.5075C35.2776 15.444 35.1628 15.5592 35.1628 15.7892V35.375C35.1628 35.5655 35.2776 35.6612 35.5075 35.6612H37.9675C38.1981 35.6612 38.3128 35.546 38.3128 35.3192V15.7892C38.3128 15.5592 38.1981 15.444 37.9675 15.444ZM37.9675 15.444H35.5075C35.2776 15.444 35.1628 15.5592 35.1628 15.7892V35.375C35.1628 35.5655 35.2776 35.6612 35.5075 35.6612H37.9675C38.1981 35.6612 38.3128 35.546 38.3128 35.3192V15.7892C38.3128 15.5592 38.1981 15.444 37.9675 15.444ZM37.9675 15.444H35.5075C35.2776 15.444 35.1628 15.5592 35.1628 15.7892V35.375C35.1628 35.5655 35.2776 35.6612 35.5075 35.6612H37.9675C38.1981 35.6612 38.3128 35.546 38.3128 35.3192V15.7892C38.3128 15.5592 38.1981 15.444 37.9675 15.444ZM37.9675 15.444H35.5075C35.2776 15.444 35.1628 15.5592 35.1628 15.7892V35.375C35.1628 35.5655 35.2776 35.6612 35.5075 35.6612H37.9675C38.1981 35.6612 38.3128 35.546 38.3128 35.3192V15.7892C38.3128 15.5592 38.1981 15.444 37.9675 15.444ZM100.105 16.5917H97.1285C96.7838 16.5917 96.6128 16.7627 96.6128 17.1047V49.9228C96.6128 50.1528 96.7838 50.2648 97.1285 50.2648H99.5328C99.878 50.2648 100.049 50.1528 100.049 49.9228L100.621 17.1047C100.621 16.7627 100.45 16.5917 100.105 16.5917ZM100.105 16.5917H97.1285C96.7838 16.5917 96.6128 16.7627 96.6128 17.1047V49.9228C96.6128 50.1528 96.7838 50.2648 97.1285 50.2648H99.5328C99.878 50.2648 100.049 50.1528 100.049 49.9228L100.621 17.1047C100.621 16.7627 100.45 16.5917 100.105 16.5917ZM37.9675 15.444H35.5075C35.2776 15.444 35.1628 15.5592 35.1628 15.7892V35.375C35.1628 35.5655 35.2776 35.6612 35.5075 35.6612H37.9675C38.1981 35.6612 38.3128 35.546 38.3128 35.3192V15.7892C38.3128 15.5592 38.1981 15.444 37.9675 15.444ZM37.9675 15.444H35.5075C35.2776 15.444 35.1628 15.5592 35.1628 15.7892V35.375C35.1628 35.5655 35.2776 35.6612 35.5075 35.6612H37.9675C38.1981 35.6612 38.3128 35.546 38.3128 35.3192V15.7892C38.3128 15.5592 38.1981 15.444 37.9675 15.444ZM100.105 16.5917H97.1285C96.7838 16.5917 96.6128 16.7627 96.6128 17.1047V49.9228C96.6128 50.1528 96.7838 50.2648 97.1285 50.2648H99.5328C99.878 50.2648 100.049 50.1528 100.049 49.9228L100.621 17.1047C100.621 16.7627 100.45 16.5917 100.105 16.5917ZM127.48 16.1907L124.274 16.5917V32.3988L127.997 32.2245C128.224 32.2245 128.339 32.1098 128.339 31.8825V17.0484L127.48 16.1907ZM144.317 16.0159L141.854 16.5917C141.628 16.7037 141.512 16.8975 141.512 17.1637V37.3214C141.512 37.5157 141.628 37.6077 141.854 37.6077L143.975 37.2657C144.202 37.2657 144.317 37.1504 144.317 36.9205L144.662 16.3617C144.662 16.1312 144.547 16.0159 144.317 16.0159ZM144.317 16.0159L141.854 16.5917C141.628 16.7037 141.512 16.8975 141.512 17.1637V37.3214C141.512 37.5157 141.628 37.6077 141.854 37.6077L143.975 37.2657C144.202 37.2657 144.317 37.1504 144.317 36.9205L144.662 16.3617C144.662 16.1312 144.547 16.0159 144.317 16.0159ZM127.48 16.1907L124.274 16.5917V32.3988L127.997 32.2245C128.224 32.2245 128.339 32.1098 128.339 31.8825V17.0484L127.48 16.1907ZM100.105 16.5917H97.1285C96.7838 16.5917 96.6128 16.7627 96.6128 17.1047V49.9228C96.6128 50.1528 96.7838 50.2648 97.1285 50.2648H99.5328C99.878 50.2648 100.049 50.1528 100.049 49.9228L100.621 17.1047C100.621 16.7627 100.45 16.5917 100.105 16.5917ZM37.9675 15.444H35.5075C35.2776 15.444 35.1628 15.5592 35.1628 15.7892V35.375C35.1628 35.5655 35.2776 35.6612 35.5075 35.6612H37.9675C38.1981 35.6612 38.3128 35.546 38.3128 35.3192V15.7892C38.3128 15.5592 38.1981 15.444 37.9675 15.444ZM37.9675 15.444H35.5075C35.2776 15.444 35.1628 15.5592 35.1628 15.7892V35.375C35.1628 35.5655 35.2776 35.6612 35.5075 35.6612H37.9675C38.1981 35.6612 38.3128 35.546 38.3128 35.3192V15.7892C38.3128 15.5592 38.1981 15.444 37.9675 15.444ZM100.105 16.5917H97.1285C96.7838 16.5917 96.6128 16.7627 96.6128 17.1047V49.9228C96.6128 50.1528 96.7838 50.2648 97.1285 50.2648H99.5328C99.878 50.2648 100.049 50.1528 100.049 49.9228L100.621 17.1047C100.621 16.7627 100.45 16.5917 100.105 16.5917ZM127.48 16.1907L124.274 16.5917V32.3988L127.997 32.2245C128.224 32.2245 128.339 32.1098 128.339 31.8825V17.0484L127.48 16.1907ZM144.317 16.0159L141.854 16.5917C141.628 16.7037 141.512 16.8975 141.512 17.1637V37.3214C141.512 37.5157 141.628 37.6077 141.854 37.6077L143.975 37.2657C144.202 37.2657 144.317 37.1504 144.317 36.9205L144.662 16.3617C144.662 16.1312 144.547 16.0159 144.317 16.0159ZM144.317 16.0159L141.854 16.5917C141.628 16.7037 141.512 16.8975 141.512 17.1637V37.3214C141.512 37.5157 141.628 37.6077 141.854 37.6077L143.975 37.2657C144.202 37.2657 144.317 37.1504 144.317 36.9205L144.662 16.3617C144.662 16.1312 144.547 16.0159 144.317 16.0159ZM127.48 16.1907L124.274 16.5917V32.3988L127.997 32.2245C128.224 32.2245 128.339 32.1098 128.339 31.8825V17.0484L127.48 16.1907ZM100.105 16.5917H97.1285C96.7838 16.5917 96.6128 16.7627 96.6128 17.1047V49.9228C96.6128 50.1528 96.7838 50.2648 97.1285 50.2648H99.5328C99.878 50.2648 100.049 50.1528 100.049 49.9228L100.621 17.1047C100.621 16.7627 100.45 16.5917 100.105 16.5917ZM37.9675 15.444H35.5075C35.2776 15.444 35.1628 15.5592 35.1628 15.7892V35.375C35.1628 35.5655 35.2776 35.6612 35.5075 35.6612H37.9675C38.1981 35.6612 38.3128 35.546 38.3128 35.3192V15.7892C38.3128 15.5592 38.1981 15.444 37.9675 15.444ZM37.9675 15.444H35.5075C35.2776 15.444 35.1628 15.5592 35.1628 15.7892V35.375C35.1628 35.5655 35.2776 35.6612 35.5075 35.6612H37.9675C38.1981 35.6612 38.3128 35.546 38.3128 35.3192V15.7892C38.3128 15.5592 38.1981 15.444 37.9675 15.444ZM100.105 16.5917H97.1285C96.7838 16.5917 96.6128 16.7627 96.6128 17.1047V49.9228C96.6128 50.1528 96.7838 50.2648 97.1285 50.2648H99.5328C99.878 50.2648 100.049 50.1528 100.049 49.9228L100.621 17.1047C100.621 16.7627 100.45 16.5917 100.105 16.5917ZM127.48 16.1907L124.274 16.5917V32.3988L127.997 32.2245C128.224 32.2245 128.339 32.1098 128.339 31.8825V17.0484L127.48 16.1907ZM144.317 16.0159L141.854 16.5917C141.628 16.7037 141.512 16.8975 141.512 17.1637V37.3214C141.512 37.5157 141.628 37.6077 141.854 37.6077L143.975 37.2657C144.202 37.2657 144.317 37.1504 144.317 36.9205L144.662 16.3617C144.662 16.1312 144.547 16.0159 144.317 16.0159ZM144.317 16.0159L141.854 16.5917C141.628 16.7037 141.512 16.8975 141.512 17.1637V37.3214C141.512 37.5157 141.628 37.6077 141.854 37.6077L143.975 37.2657C144.202 37.2657 144.317 37.1504 144.317 36.9205L144.662 16.3617C144.662 16.1312 144.547 16.0159 144.317 16.0159ZM127.48 16.1907L124.274 16.5917V32.3988L127.997 32.2245C128.224 32.2245 128.339 32.1098 128.339 31.8825V17.0484L127.48 16.1907ZM100.105 16.5917H97.1285C96.7838 16.5917 96.6128 16.7627 96.6128 17.1047V49.9228C96.6128 50.1528 96.7838 50.2648 97.1285 50.2648H99.5328C99.878 50.2648 100.049 50.1528 100.049 49.9228L100.621 17.1047C100.621 16.7627 100.45 16.5917 100.105 16.5917ZM37.9675 15.444H35.5075C35.2776 15.444 35.1628 15.5592 35.1628 15.7892V35.375C35.1628 35.5655 35.2776 35.6612 35.5075 35.6612H37.9675C38.1981 35.6612 38.3128 35.546 38.3128 35.3192V15.7892C38.3128 15.5592 38.1981 15.444 37.9675 15.444ZM37.9675 15.444H35.5075C35.2776 15.444 35.1628 15.5592 35.1628 15.7892V35.375C35.1628 35.5655 35.2776 35.6612 35.5075 35.6612H37.9675C38.1981 35.6612 38.3128 35.546 38.3128 35.3192V15.7892C38.3128 15.5592 38.1981 15.444 37.9675 15.444ZM100.105 16.5917H97.1285C96.7838 16.5917 96.6128 16.7627 96.6128 17.1047V49.9228C96.6128 50.1528 96.7838 50.2648 97.1285 50.2648H99.5328C99.878 50.2648 100.049 50.1528 100.049 49.9228L100.621 17.1047C100.621 16.7627 100.45 16.5917 100.105 16.5917ZM127.48 16.1907L124.274 16.5917V32.3988L127.997 32.2245C128.224 32.2245 128.339 32.1098 128.339 31.8825V17.0484L127.48 16.1907ZM144.317 16.0159L141.854 16.5917C141.628 16.7037 141.512 16.8975 141.512 17.1637V37.3214C141.512 37.5157 141.628 37.6077 141.854 37.6077L143.975 37.2657C144.202 37.2657 144.317 37.1504 144.317 36.9205L144.662 16.3617C144.662 16.1312 144.547 16.0159 144.317 16.0159ZM195.461 15.444H192.998C192.768 15.444 192.653 15.5592 192.653 15.7892V35.375C192.653 35.5655 192.768 35.6612 192.998 35.6612H195.461C195.688 35.6612 195.803 35.546 195.803 35.3192V15.7892C195.803 15.5592 195.688 15.444 195.461 15.444ZM212.955 16.6177C212.479 16.2562 211.475 16.0755 209.95 16.0755C209.489 16.2264 209.263 16.457 209.263 16.7627V32.3398C209.263 32.4545 209.328 32.56 209.463 32.6552C209.595 32.7505 209.756 32.797 209.95 32.797H212.985C213.212 32.797 213.327 32.685 213.327 32.4545L213.672 17.9662C213.672 17.4305 213.433 16.9829 212.955 16.6177ZM212.955 16.6177C212.479 16.2562 211.475 16.0755 209.95 16.0755C209.489 16.2264 209.263 16.457 209.263 16.7627V32.3398C209.263 32.4545 209.328 32.56 209.463 32.6552C209.595 32.7505 209.756 32.797 209.95 32.797H212.985C213.212 32.797 213.327 32.685 213.327 32.4545L213.672 17.9662C213.672 17.4305 213.433 16.9829 212.955 16.6177ZM195.461 15.444H192.998C192.768 15.444 192.653 15.5592 192.653 15.7892V35.375C192.653 35.5655 192.768 35.6612 192.998 35.6612H195.461C195.688 35.6612 195.803 35.546 195.803 35.3192V15.7892C195.803 15.5592 195.688 15.444 195.461 15.444ZM144.317 16.0159L141.854 16.5917C141.628 16.7037 141.512 16.8975 141.512 17.1637V37.3214C141.512 37.5157 141.628 37.6077 141.854 37.6077L143.975 37.2657C144.202 37.2657 144.317 37.1504 144.317 36.9205L144.662 16.3617C144.662 16.1312 144.547 16.0159 144.317 16.0159ZM127.48 16.1907L124.274 16.5917V32.3988L127.997 32.2245C128.224 32.2245 128.339 32.1098 128.339 31.8825V17.0484L127.48 16.1907ZM100.105 16.5917H97.1285C96.7838 16.5917 96.6128 16.7627 96.6128 17.1047V49.9228C96.6128 50.1528 96.7838 50.2648 97.1285 50.2648H99.5328C99.878 50.2648 100.049 50.1528 100.049 49.9228L100.621 17.1047C100.621 16.7627 100.45 16.5917 100.105 16.5917ZM37.9675 15.444H35.5075C35.2776 15.444 35.1628 15.5592 35.1628 15.7892V35.375C35.1628 35.5655 35.2776 35.6612 35.5075 35.6612H37.9675C38.1981 35.6612 38.3128 35.546 38.3128 35.3192V15.7892C38.3128 15.5592 38.1981 15.444 37.9675 15.444ZM37.9675 15.444H35.5075C35.2776 15.444 35.1628 15.5592 35.1628 15.7892V35.375C35.1628 35.5655 35.2776 35.6612 35.5075 35.6612H37.9675C38.1981 35.6612 38.3128 35.546 38.3128 35.3192V15.7892C38.3128 15.5592 38.1981 15.444 37.9675 15.444ZM100.105 16.5917H97.1285C96.7838 16.5917 96.6128 16.7627 96.6128 17.1047V49.9228C96.6128 50.1528 96.7838 50.2648 97.1285 50.2648H99.5328C99.878 50.2648 100.049 50.1528 100.049 49.9228L100.621 17.1047C100.621 16.7627 100.45 16.5917 100.105 16.5917ZM124.274 16.5917V32.3988L127.997 32.2245C128.224 32.2245 128.339 32.1098 128.339 31.8825V17.0484L127.48 16.1907L124.274 16.5917ZM144.317 16.0159L141.854 16.5917C141.628 16.7037 141.512 16.8975 141.512 17.1637V37.3214C141.512 37.5157 141.628 37.6077 141.854 37.6077L143.975 37.2657C144.202 37.2657 144.317 37.1504 144.317 36.9205L144.662 16.3617C144.662 16.1312 144.547 16.0159 144.317 16.0159ZM195.461 15.444H192.998C192.768 15.444 192.653 15.5592 192.653 15.7892V35.375C192.653 35.5655 192.768 35.6612 192.998 35.6612H195.461C195.688 35.6612 195.803 35.546 195.803 35.3192V15.7892C195.803 15.5592 195.688 15.444 195.461 15.444ZM212.955 16.6177C212.479 16.2562 211.475 16.0755 209.95 16.0755C209.489 16.2264 209.263 16.457 209.263 16.7627V32.3398C209.263 32.4545 209.328 32.56 209.463 32.6552C209.595 32.7505 209.756 32.797 209.95 32.797H212.985C213.212 32.797 213.327 32.685 213.327 32.4545L213.672 17.9662C213.672 17.4305 213.433 16.9829 212.955 16.6177ZM231.423 17.4499L227.874 17.2789L227.359 17.6209L227.013 50.6658L231.081 51.0116L231.597 50.4948L231.939 17.7919C231.939 17.6009 231.768 17.4894 231.423 17.4499ZM37.9675 15.444H35.5075C35.2776 15.444 35.1628 15.5592 35.1628 15.7892V35.375C35.1628 35.5655 35.2776 35.6612 35.5075 35.6612H37.9675C38.1981 35.6612 38.3128 35.546 38.3128 35.3192V15.7892C38.3128 15.5592 38.1981 15.444 37.9675 15.444ZM100.105 16.5917H97.1285C96.7838 16.5917 96.6128 16.7627 96.6128 17.1047V49.9228C96.6128 50.1528 96.7838 50.2648 97.1285 50.2648H99.5328C99.878 50.2648 100.049 50.1528 100.049 49.9228L100.621 17.1047C100.621 16.7627 100.45 16.5917 100.105 16.5917ZM127.48 16.1907L124.274 16.5917V32.3988L127.997 32.2245C128.224 32.2245 128.339 32.1098 128.339 31.8825V17.0484L127.48 16.1907ZM144.317 16.0159L141.854 16.5917C141.628 16.7037 141.512 16.8975 141.512 17.1637V37.3214C141.512 37.5157 141.628 37.6077 141.854 37.6077L143.975 37.2657C144.202 37.2657 144.317 37.1504 144.317 36.9205L144.662 16.3617C144.662 16.1312 144.547 16.0159 144.317 16.0159ZM195.461 15.444H192.998C192.768 15.444 192.653 15.5592 192.653 15.7892V35.375C192.653 35.5655 192.768 35.6612 192.998 35.6612H195.461C195.688 35.6612 195.803 35.546 195.803 35.3192V15.7892C195.803 15.5592 195.688 15.444 195.461 15.444ZM231.423 17.4499L227.874 17.2789L227.359 17.6209L227.013 50.6658L231.081 51.0116L231.597 50.4948L231.939 17.7919C231.939 17.6009 231.768 17.4894 231.423 17.4499ZM212.955 16.6177C212.479 16.2562 211.475 16.0755 209.95 16.0755C209.489 16.2264 209.263 16.457 209.263 16.7627V32.3398C209.263 32.4545 209.328 32.56 209.463 32.6552C209.595 32.7505 209.756 32.797 209.95 32.797H212.985C213.212 32.797 213.327 32.685 213.327 32.4545L213.672 17.9662C213.672 17.4305 213.433 16.9829 212.955 16.6177ZM231.423 17.4499L227.874 17.2789L227.359 17.6209L227.013 50.6658L231.081 51.0116L231.597 50.4948L231.939 17.7919C231.939 17.6009 231.768 17.4894 231.423 17.4499ZM212.955 16.6177C212.479 16.2562 211.475 16.0755 209.95 16.0755C209.489 16.2264 209.263 16.457 209.263 16.7627V32.3398C209.263 32.4545 209.328 32.56 209.463 32.6552C209.595 32.7505 209.756 32.797 209.95 32.797H212.985C213.212 32.797 213.327 32.685 213.327 32.4545L213.672 17.9662C213.672 17.4305 213.433 16.9829 212.955 16.6177ZM195.461 15.444H192.998C192.768 15.444 192.653 15.5592 192.653 15.7892V35.375C192.653 35.5655 192.768 35.6612 192.998 35.6612H195.461C195.688 35.6612 195.803 35.546 195.803 35.3192V15.7892C195.803 15.5592 195.688 15.444 195.461 15.444ZM144.317 16.0159L141.854 16.5917C141.628 16.7037 141.512 16.8975 141.512 17.1637V37.3214C141.512 37.5157 141.628 37.6077 141.854 37.6077L143.975 37.2657C144.202 37.2657 144.317 37.1504 144.317 36.9205L144.662 16.3617C144.662 16.1312 144.547 16.0159 144.317 16.0159ZM127.48 16.1907L124.274 16.5917V32.3988L127.997 32.2245C128.224 32.2245 128.339 32.1098 128.339 31.8825V17.0484L127.48 16.1907ZM100.105 16.5917H97.1285C96.7838 16.5917 96.6128 16.7627 96.6128 17.1047V49.9228C96.6128 50.1528 96.7838 50.2648 97.1285 50.2648H99.5328C99.878 50.2648 100.049 50.1528 100.049 49.9228L100.621 17.1047C100.621 16.7627 100.45 16.5917 100.105 16.5917ZM37.9675 15.444H35.5075C35.2776 15.444 35.1628 15.5592 35.1628 15.7892V35.375C35.1628 35.5655 35.2776 35.6612 35.5075 35.6612H37.9675C38.1981 35.6612 38.3128 35.546 38.3128 35.3192V15.7892C38.3128 15.5592 38.1981 15.444 37.9675 15.444ZM37.9675 15.444H35.5075C35.2776 15.444 35.1628 15.5592 35.1628 15.7892V35.375C35.1628 35.5655 35.2776 35.6612 35.5075 35.6612H37.9675C38.1981 35.6612 38.3128 35.546 38.3128 35.3192V15.7892C38.3128 15.5592 38.1981 15.444 37.9675 15.444ZM100.105 16.5917H97.1285C96.7838 16.5917 96.6128 16.7627 96.6128 17.1047V49.9228C96.6128 50.1528 96.7838 50.2648 97.1285 50.2648H99.5328C99.878 50.2648 100.049 50.1528 100.049 49.9228L100.621 17.1047C100.621 16.7627 100.45 16.5917 100.105 16.5917ZM127.48 16.1907L124.274 16.5917V32.3988L127.997 32.2245C128.224 32.2245 128.339 32.1098 128.339 31.8825V17.0484L127.48 16.1907ZM144.317 16.0159L141.854 16.5917C141.628 16.7037 141.512 16.8975 141.512 17.1637V37.3214C141.512 37.5157 141.628 37.6077 141.854 37.6077L143.975 37.2657C144.202 37.2657 144.317 37.1504 144.317 36.9205L144.662 16.3617C144.662 16.1312 144.547 16.0159 144.317 16.0159ZM195.461 15.444H192.998C192.768 15.444 192.653 15.5592 192.653 15.7892V35.375C192.653 35.5655 192.768 35.6612 192.998 35.6612H195.461C195.688 35.6612 195.803 35.546 195.803 35.3192V15.7892C195.803 15.5592 195.688 15.444 195.461 15.444ZM195.461 15.444H192.998C192.768 15.444 192.653 15.5592 192.653 15.7892V35.375C192.653 35.5655 192.768 35.6612 192.998 35.6612H195.461C195.688 35.6612 195.803 35.546 195.803 35.3192V15.7892C195.803 15.5592 195.688 15.444 195.461 15.444ZM144.317 16.0159L141.854 16.5917C141.628 16.7037 141.512 16.8975 141.512 17.1637V37.3214C141.512 37.5157 141.628 37.6077 141.854 37.6077L143.975 37.2657C144.202 37.2657 144.317 37.1504 144.317 36.9205L144.662 16.3617C144.662 16.1312 144.547 16.0159 144.317 16.0159ZM127.48 16.1907L124.274 16.5917V32.3988L127.997 32.2245C128.224 32.2245 128.339 32.1098 128.339 31.8825V17.0484L127.48 16.1907ZM100.105 16.5917H97.1285C96.7838 16.5917 96.6128 16.7627 96.6128 17.1047V49.9228C96.6128 50.1528 96.7838 50.2648 97.1285 50.2648H99.5328C99.878 50.2648 100.049 50.1528 100.049 49.9228L100.621 17.1047C100.621 16.7627 100.45 16.5917 100.105 16.5917ZM37.9675 15.444H35.5075C35.2776 15.444 35.1628 15.5592 35.1628 15.7892V35.375C35.1628 35.5655 35.2776 35.6612 35.5075 35.6612H37.9675C38.1981 35.6612 38.3128 35.546 38.3128 35.3192V15.7892C38.3128 15.5592 38.1981 15.444 37.9675 15.444ZM37.9675 15.444H35.5075C35.2776 15.444 35.1628 15.5592 35.1628 15.7892V35.375C35.1628 35.5655 35.2776 35.6612 35.5075 35.6612H37.9675C38.1981 35.6612 38.3128 35.546 38.3128 35.3192V15.7892C38.3128 15.5592 38.1981 15.444 37.9675 15.444ZM100.105 16.5917H97.1285C96.7838 16.5917 96.6128 16.7627 96.6128 17.1047V49.9228C96.6128 50.1528 96.7838 50.2648 97.1285 50.2648H99.5328C99.878 50.2648 100.049 50.1528 100.049 49.9228L100.621 17.1047C100.621 16.7627 100.45 16.5917 100.105 16.5917ZM127.48 16.1907L124.274 16.5917V32.3988L127.997 32.2245C128.224 32.2245 128.339 32.1098 128.339 31.8825V17.0484L127.48 16.1907ZM144.317 16.0159L141.854 16.5917C141.628 16.7037 141.512 16.8975 141.512 17.1637V37.3214C141.512 37.5157 141.628 37.6077 141.854 37.6077L143.975 37.2657C144.202 37.2657 144.317 37.1504 144.317 36.9205L144.662 16.3617C144.662 16.1312 144.547 16.0159 144.317 16.0159ZM144.317 16.0159L141.854 16.5917C141.628 16.7037 141.512 16.8975 141.512 17.1637V37.3214C141.512 37.5157 141.628 37.6077 141.854 37.6077L143.975 37.2657C144.202 37.2657 144.317 37.1504 144.317 36.9205L144.662 16.3617C144.662 16.1312 144.547 16.0159 144.317 16.0159ZM127.48 16.1907L124.274 16.5917V32.3988L127.997 32.2245C128.224 32.2245 128.339 32.1098 128.339 31.8825V17.0484L127.48 16.1907ZM100.105 16.5917H97.1285C96.7838 16.5917 96.6128 16.7627 96.6128 17.1047V49.9228C96.6128 50.1528 96.7838 50.2648 97.1285 50.2648H99.5328C99.878 50.2648 100.049 50.1528 100.049 49.9228L100.621 17.1047C100.621 16.7627 100.45 16.5917 100.105 16.5917ZM37.9675 15.444H35.5075C35.2776 15.444 35.1628 15.5592 35.1628 15.7892V35.375C35.1628 35.5655 35.2776 35.6612 35.5075 35.6612H37.9675C38.1981 35.6612 38.3128 35.546 38.3128 35.3192V15.7892C38.3128 15.5592 38.1981 15.444 37.9675 15.444ZM37.9675 15.444H35.5075C35.2776 15.444 35.1628 15.5592 35.1628 15.7892V35.375C35.1628 35.5655 35.2776 35.6612 35.5075 35.6612H37.9675C38.1981 35.6612 38.3128 35.546 38.3128 35.3192V15.7892C38.3128 15.5592 38.1981 15.444 37.9675 15.444ZM100.105 16.5917H97.1285C96.7838 16.5917 96.6128 16.7627 96.6128 17.1047V49.9228C96.6128 50.1528 96.7838 50.2648 97.1285 50.2648H99.5328C99.878 50.2648 100.049 50.1528 100.049 49.9228L100.621 17.1047C100.621 16.7627 100.45 16.5917 100.105 16.5917ZM127.48 16.1907L124.274 16.5917V32.3988L127.997 32.2245C128.224 32.2245 128.339 32.1098 128.339 31.8825V17.0484L127.48 16.1907ZM144.317 16.0159L141.854 16.5917C141.628 16.7037 141.512 16.8975 141.512 17.1637V37.3214C141.512 37.5157 141.628 37.6077 141.854 37.6077L143.975 37.2657C144.202 37.2657 144.317 37.1504 144.317 36.9205L144.662 16.3617C144.662 16.1312 144.547 16.0159 144.317 16.0159ZM144.317 16.0159L141.854 16.5917C141.628 16.7037 141.512 16.8975 141.512 17.1637V37.3214C141.512 37.5157 141.628 37.6077 141.854 37.6077L143.975 37.2657C144.202 37.2657 144.317 37.1504 144.317 36.9205L144.662 16.3617C144.662 16.1312 144.547 16.0159 144.317 16.0159ZM127.48 16.1907L124.274 16.5917V32.3988L127.997 32.2245C128.224 32.2245 128.339 32.1098 128.339 31.8825V17.0484L127.48 16.1907ZM100.105 16.5917H97.1285C96.7838 16.5917 96.6128 16.7627 96.6128 17.1047V49.9228C96.6128 50.1528 96.7838 50.2648 97.1285 50.2648H99.5328C99.878 50.2648 100.049 50.1528 100.049 49.9228L100.621 17.1047C100.621 16.7627 100.45 16.5917 100.105 16.5917ZM37.9675 15.444H35.5075C35.2776 15.444 35.1628 15.5592 35.1628 15.7892V35.375C35.1628 35.5655 35.2776 35.6612 35.5075 35.6612H37.9675C38.1981 35.6612 38.3128 35.546 38.3128 35.3192V15.7892C38.3128 15.5592 38.1981 15.444 37.9675 15.444ZM37.9675 15.444H35.5075C35.2776 15.444 35.1628 15.5592 35.1628 15.7892V35.375C35.1628 35.5655 35.2776 35.6612 35.5075 35.6612H37.9675C38.1981 35.6612 38.3128 35.546 38.3128 35.3192V15.7892C38.3128 15.5592 38.1981 15.444 37.9675 15.444ZM100.105 16.5917H97.1285C96.7838 16.5917 96.6128 16.7627 96.6128 17.1047V49.9228C96.6128 50.1528 96.7838 50.2648 97.1285 50.2648H99.5328C99.878 50.2648 100.049 50.1528 100.049 49.9228L100.621 17.1047C100.621 16.7627 100.45 16.5917 100.105 16.5917ZM127.48 16.1907L124.274 16.5917V32.3988L127.997 32.2245C128.224 32.2245 128.339 32.1098 128.339 31.8825V17.0484L127.48 16.1907ZM127.48 16.1907L124.274 16.5917V32.3988L127.997 32.2245C128.224 32.2245 128.339 32.1098 128.339 31.8825V17.0484L127.48 16.1907ZM100.105 16.5917H97.1285C96.7838 16.5917 96.6128 16.7627 96.6128 17.1047V49.9228C96.6128 50.1528 96.7838 50.2648 97.1285 50.2648H99.5328C99.878 50.2648 100.049 50.1528 100.049 49.9228L100.621 17.1047C100.621 16.7627 100.45 16.5917 100.105 16.5917ZM37.9675 15.444H35.5075C35.2776 15.444 35.1628 15.5592 35.1628 15.7892V35.375C35.1628 35.5655 35.2776 35.6612 35.5075 35.6612H37.9675C38.1981 35.6612 38.3128 35.546 38.3128 35.3192V15.7892C38.3128 15.5592 38.1981 15.444 37.9675 15.444ZM37.9675 15.444H35.5075C35.2776 15.444 35.1628 15.5592 35.1628 15.7892V35.375C35.1628 35.5655 35.2776 35.6612 35.5075 35.6612H37.9675C38.1981 35.6612 38.3128 35.546 38.3128 35.3192V15.7892C38.3128 15.5592 38.1981 15.444 37.9675 15.444ZM37.9675 15.444H35.5075C35.2776 15.444 35.1628 15.5592 35.1628 15.7892V35.375C35.1628 35.5655 35.2776 35.6612 35.5075 35.6612H37.9675C38.1981 35.6612 38.3128 35.546 38.3128 35.3192V15.7892C38.3128 15.5592 38.1981 15.444 37.9675 15.444ZM37.9675 15.444H35.5075C35.2776 15.444 35.1628 15.5592 35.1628 15.7892V35.375C35.1628 35.5655 35.2776 35.6612 35.5075 35.6612H37.9675C38.1981 35.6612 38.3128 35.546 38.3128 35.3192V15.7892C38.3128 15.5592 38.1981 15.444 37.9675 15.444ZM37.9675 15.444H35.5075C35.2776 15.444 35.1628 15.5592 35.1628 15.7892V35.375C35.1628 35.5655 35.2776 35.6612 35.5075 35.6612H37.9675C38.1981 35.6612 38.3128 35.546 38.3128 35.3192V15.7892C38.3128 15.5592 38.1981 15.444 37.9675 15.444Z" fill="#3F006F"/>
<path d="M235.149 54.2762H227.529C225.964 54.2762 224.876 54.0267 224.264 53.53C223.656 53.0332 223.35 52.2145 223.35 51.0673V14.9867C224.188 14.53 225.287 14.1847 226.642 13.9574C227.997 13.7275 229.801 13.6127 232.054 13.6127C233.087 13.6127 233.925 13.8687 234.573 14.3849C235.224 14.9012 235.547 15.5592 235.547 16.3617L235.149 54.2762ZM217.257 54.3227C216.57 53.964 215.935 53.5267 215.428 52.9185C215.007 52.412 214.593 52.0797 214.008 52.2572L213.271 43.2208L210.121 36.4632H208.46V54.2762H205.139V15.9602L203.879 15.2729V13.6127H212.811C214.264 13.6127 215.474 13.8887 216.448 14.4445C217.421 14.9964 217.928 15.6544 217.967 16.4174L217.395 32.284C217.395 32.856 217.135 33.5529 216.622 34.3722C216.106 35.1942 215.162 35.796 213.787 36.1769L217.164 42.4779L218.368 54.2762L217.257 54.3227ZM199.411 54.2762H196.089L194.6 38.3544H191.68L189.045 54.2762H186.352L188.93 13.6127H199.411V54.2762ZM181.946 50.84C181.946 51.603 181.449 52.366 180.456 53.1285C179.463 53.8952 178.546 54.2762 177.707 54.2762H171.006L170.489 44.48H173.87L173.81 49.4655L177.822 50.3795L178.736 35.1477L171.006 33.428V14.9867L173.298 13.6127H182.288L182.002 21.6886H179.884L178.736 17.2199L175.3 17.6209L174.442 30.337L182.745 31.8235L181.946 50.84ZM166.023 16.4174L157.891 17.5056L158.75 30.1627L166.023 32.0535V50.84C166.023 51.6393 165.622 52.4152 164.82 53.1582C164.018 53.9017 163.199 54.2762 162.357 54.2762H154.169V50.3795H162.13L160.755 35.0329L154.169 33.3132V16.3054C154.169 15.6939 154.406 15.0922 154.886 14.5002C155.363 13.9082 155.885 13.6127 156.461 13.6127H166.023V16.4174ZM147.467 54.2762L145.406 39.0417L140.825 41.2181L139.565 54.2762H136.014L138.592 13.6127H147.638L149.99 54.2762H147.467ZM130.23 36.1212L123.929 36.7494L123.472 54.2762H119.52L120.838 14.9309C120.838 14.5494 121.545 14.234 122.956 13.984C124.37 13.7372 125.744 13.6127 127.079 13.6127H129.542C130.039 13.6127 130.506 13.7172 130.946 13.9282C131.384 14.1382 131.604 14.4342 131.604 14.8157L132.236 32.5697L130.23 36.1212ZM104.459 52.2145L100.851 54.2762H95.3531L91.9726 51.8692V15.4439L94.4353 13.6127H102.166L104.459 15.2172V52.2145ZM87.6782 54.2762H76.8528V13.6127H82.4102L81.2062 49.5775L87.6782 50.61V54.2762ZM66.8332 53.1285V13.6127H70.4404L71.6439 53.1285H66.8332ZM60.5328 55.4207H56.6393L51.0256 22.5469H50.7956L49.7106 55.4207H46.7869L48.6219 13.6127H52.1138L57.8985 46.7723H58.2995V13.6127H61.68L60.5328 55.4207ZM41.92 54.2762H38.599L37.1093 38.3544H34.1893L31.5551 54.2762H28.8619L31.4404 13.6127H41.92V54.2762ZM23.4787 51.0115L19.9868 54.2762H12.3676V13.6127H18.9543C20.7893 13.6127 22.2855 14.2042 23.4495 15.3882C24.6167 16.5717 25.1984 18.0814 25.1984 19.9126L23.4787 51.0115ZM247.306 48.3178L247.253 40.4654L247.246 39.4951L247.171 28.3608L247.135 22.7606C247.132 22.7573 247.132 22.7574 247.135 22.7574V22.7509L247.062 12.103V12.0965L247.033 7.83777L247.026 6.9568C246.996 6.9173 246.967 6.8778 246.928 6.84155C246.497 6.35832 245.658 6.03905 244.507 5.84153C238.112 4.75007 222.11 7.49577 212.784 7.49577C208.332 6.85507 203.09 5.59856 198.641 6.23655C182.613 7.16351 166.589 7.42055 150.558 8.47252L144.491 8.91949L146.721 6.96654L144.149 4.28307L140.269 9.27502C137.711 9.50825 135.149 9.76799 132.591 10.0672C123.932 10.7058 115.524 6.23655 106.866 5.59855C93.5051 3.68457 80.3978 7.51255 67.0404 8.15055C53.9293 8.79179 41.0617 8.79178 27.9511 6.8713C23.9955 6.23655 20.0392 4.32257 16.0765 3.68457C12.3871 3.25058 8.8064 5.46056 5.18893 6.53255C2.08823 7.44003 0.0064936 10.3172 0 13.5235V23.0236C0.0064936 26.0258 0.00649333 29.2353 0.00649333 32.4485V55.5192C0.00649333 56.9597 1.18021 58.1236 2.63045 58.1236H3.78144C4.60017 58.1236 5.54445 58.1236 6.60291 58.1301C17.07 59.1004 27.2082 59.7384 37.6028 59.1004C83.8605 56.5522 130.364 61.0144 176.629 57.8244C188.602 57.2259 200.361 57.7427 212.311 59.8834H212.314C213.008 60.0014 213.702 60.1334 214.399 60.2709C214.59 60.3039 214.777 60.3434 214.968 60.3796C216.754 60.7346 218.532 60.8466 220.302 60.8039H220.308C221.187 60.7806 222.061 60.7216 222.935 60.6329H222.939C226.323 60.2844 229.693 59.5111 233.064 58.8931C233.07 58.8931 233.077 58.8931 233.08 58.8899C233.083 58.8931 233.083 58.8931 233.087 58.8899C234.037 58.7156 234.988 58.5544 235.935 58.4196H235.941C238.487 58.0549 241.031 57.8736 243.593 58.1236H245.093C246.214 58.1236 247.016 58.3082 247.371 57.8477L247.306 48.3178Z" fill="#3F006F"/>
<path d="M280.895 59.9722C280.756 60.6204 280.448 61.1399 279.74 61.2152C279.082 61.2844 278.698 60.8964 278.405 60.3206C277.83 59.1897 276.728 58.9792 275.616 58.9007C272.275 58.6637 269.135 59.4164 266.182 60.9624C263.986 62.1134 261.749 63.1324 259.254 63.4517C258.034 63.6097 256.82 63.5832 255.613 63.3694C255.403 63.3332 255.13 63.3331 255.005 63.2049C254.087 62.2411 253.121 62.8759 252.18 63.0929C248.873 63.8624 245.591 63.7736 242.351 62.7774C241.792 62.6064 241.493 62.7119 241.105 63.1129C237.607 66.6974 233.516 69.2391 228.454 69.8635C223.203 70.5145 218.945 68.4236 215.314 64.8126C214.624 64.1254 214.742 63.5436 215.646 62.6621C214.43 61.8499 213.285 60.9624 212.315 59.8834H212.312C212.151 59.7059 211.993 59.5219 211.842 59.3315C211.368 58.733 210.918 58.1177 210.569 57.4369C210.293 56.8947 210.286 56.3785 210.753 55.931C211.213 55.4905 211.733 55.4867 212.266 55.7827C212.877 56.1252 213.476 56.4867 214.081 56.8384C214.269 56.911 214.443 57.2367 214.647 56.8644C213.979 56.023 213.433 55.109 213.171 54.0533C212.996 53.346 213.075 52.6788 213.808 52.3335C213.877 52.3005 213.946 52.2745 214.009 52.2578C214.594 52.0803 215.008 52.4125 215.429 52.9185C215.936 53.5273 216.571 53.9645 217.258 54.3227C217.682 54.5435 218.123 54.7307 218.56 54.9115C222.733 56.6117 227.008 57.97 231.579 57.8152C236.781 57.6377 241.362 55.7308 245.403 52.4916C246.205 51.8471 246.232 51.8238 247.307 52.0705C246.979 50.0445 246.094 48.2956 245.035 46.6186C243.778 44.6283 242.305 42.8004 240.891 40.9291C237.587 36.5427 235.923 31.6823 236.482 26.1513C236.768 23.3564 237.6 20.7324 239.007 18.2925C239.231 17.9072 239.494 17.4635 239.935 17.503C240.79 17.5787 240.724 17.036 240.783 16.5002C241.204 12.6593 242.338 9.07156 244.509 5.84207C244.512 5.83558 244.515 5.83234 244.519 5.82585C244.979 5.14511 245.475 4.54011 246.366 4.95462C247.188 5.34261 247.136 6.08235 246.929 6.8421C246.929 6.84859 246.925 6.85183 246.925 6.85832C246.794 7.32532 246.735 7.81181 246.642 8.28909C246.731 8.47632 246.558 8.6273 246.58 8.80208C246.629 8.63758 246.613 8.44007 246.817 8.35781C246.889 8.18357 246.959 8.01257 247.034 7.83832C248.054 5.45463 249.356 3.24465 251.233 1.40317C251.493 1.14667 251.759 0.896671 252.026 0.646668C252.588 0.110946 253.203 -0.306819 253.946 0.298168C254.679 0.896661 254.42 1.58066 254.015 2.25491C253.285 3.46489 252.796 4.76414 252.483 6.14186C251.618 9.95631 251.845 13.7513 252.592 17.5457C252.785 18.5089 252.897 19.4992 253.328 20.4067C253.509 20.5972 253.624 20.8174 253.706 21.0479C253.706 21.0512 253.71 21.0544 253.71 21.0577C253.841 21.4262 253.9 21.8239 254.061 22.1789V22.1821C254.101 22.2709 254.15 22.3564 254.206 22.4386C254.633 23.2346 254.771 24.1324 255.094 24.9641C255.104 25.0004 255.114 25.0366 255.127 25.0729C255.137 25.0988 255.146 25.1286 255.157 25.1551C255.672 26.7466 256.521 28.2033 257.054 29.7915C256.847 28.1541 256.935 26.5069 256.955 24.8656V24.7606C256.959 24.6946 256.955 24.6291 256.959 24.5631C257.008 24.3559 257.044 24.1486 257.054 23.9349C257.057 23.8759 257.064 23.8201 257.067 23.7606C257.077 23.6589 257.086 23.5566 257.097 23.4581V23.4484C257.103 23.3564 257.11 23.2644 257.113 23.1719C257.116 23.1259 257.12 23.0766 257.126 23.0306C257.149 22.8661 257.192 22.7119 257.248 22.5571C257.251 22.5371 257.255 22.5209 257.257 22.5046C257.261 22.4911 257.264 22.4781 257.271 22.4684C257.288 22.4191 257.317 22.3732 257.35 22.3304V22.3272C257.376 22.2942 257.402 22.2611 257.428 22.2249V22.2216C257.501 22.1264 257.56 22.0247 257.524 21.8899V21.8867C257.521 21.8699 257.514 21.8537 257.507 21.8369C257.485 21.7649 257.485 21.6924 257.494 21.6199C257.494 21.6102 257.498 21.6004 257.501 21.5907C257.505 21.5739 257.507 21.5609 257.511 21.5441V21.5312L257.514 21.5247C257.534 21.4191 257.551 21.3109 257.557 21.2059C257.553 21.2021 257.557 21.2021 257.557 21.1994C257.56 21.0842 257.551 20.9689 257.511 20.8537L257.507 20.8504C257.474 20.7817 257.448 20.7124 257.419 20.6399C257.415 20.6334 257.412 20.6302 257.409 20.6237C257.38 20.5382 257.363 20.4559 257.369 20.3704C257.369 20.3407 257.373 20.3174 257.38 20.2882C257.406 20.2357 257.435 20.1799 257.471 20.1302V20.1269C257.642 19.8839 257.879 19.6799 257.817 19.3314C257.856 19.1669 257.895 19.0057 257.935 18.845C257.902 18.3974 258.228 18.0322 258.228 17.595V17.536C259.234 14.0862 260.605 10.821 262.914 8.00931C264.64 5.90485 266.711 4.24086 269.142 3.0179C269.83 2.66941 270.5 2.50816 271.01 3.2349C271.513 3.94811 271.181 4.53037 270.618 5.07638C267.908 7.67706 266.673 11.038 265.854 14.5792C264.542 20.2617 265.028 25.9609 265.913 31.6395C266.643 36.3322 267.56 40.9984 267.829 45.7501C267.853 46.1711 267.991 46.3161 268.408 46.3123C268.721 46.3091 269.017 46.4801 269.165 46.7631C269.704 47.8086 270.694 48.2036 271.707 48.5618C273.229 49.1008 274.775 49.5873 276.159 50.4461C277.721 51.4158 278.793 52.7113 278.78 54.6583C278.777 55.109 279.082 55.2897 279.339 55.5365C280.605 56.753 281.273 58.1772 280.895 59.9722Z" fill="#FEFFFF"/>
<path d="M274.919 53.8822C274.604 53.6847 274.212 53.7242 274.055 54.0798C273.92 54.3855 274.288 54.4515 274.498 54.5267C275.239 54.7865 275.991 55.0332 276.735 55.2832C276.751 55.2335 276.764 55.1907 276.774 55.1447C276.159 54.721 275.554 54.2805 274.919 53.8822ZM274.919 53.8822C274.604 53.6847 274.212 53.7242 274.055 54.0798C273.92 54.3855 274.288 54.4515 274.498 54.5267C275.239 54.7865 275.991 55.0332 276.735 55.2832C276.751 55.2335 276.764 55.1907 276.774 55.1447C276.159 54.721 275.554 54.2805 274.919 53.8822ZM274.919 53.8822C274.604 53.6847 274.212 53.7242 274.055 54.0798C273.92 54.3855 274.288 54.4515 274.498 54.5267C275.239 54.7865 275.991 55.0332 276.735 55.2832C276.751 55.2335 276.764 55.1907 276.774 55.1447C276.159 54.721 275.554 54.2805 274.919 53.8822ZM274.919 53.8822C274.604 53.6847 274.212 53.7242 274.055 54.0798C273.92 54.3855 274.288 54.4515 274.498 54.5267C275.239 54.7865 275.991 55.0332 276.735 55.2832C276.751 55.2335 276.764 55.1907 276.774 55.1447C276.159 54.721 275.554 54.2805 274.919 53.8822ZM274.055 54.0798C273.92 54.3855 274.288 54.4515 274.498 54.5267C275.239 54.7865 275.991 55.0332 276.735 55.2832C276.751 55.2335 276.764 55.1907 276.774 55.1447C276.159 54.721 275.554 54.2805 274.919 53.8822C274.604 53.6847 274.212 53.7242 274.055 54.0798ZM279.625 60.0284C278.626 58.1475 276.955 57.7589 275.074 57.6967C271.368 57.5782 267.981 58.6307 264.765 60.3769C263.259 61.1989 261.674 61.8234 259.987 62.1556C258.441 62.4581 256.902 62.5144 255.337 62.0934C255.383 61.8304 255.627 61.8467 255.791 61.7676C255.982 61.6789 256.185 61.6167 256.383 61.5312C259.504 60.2287 261.957 58.1897 263.433 55.089C264.469 52.9126 264.564 50.6105 264.186 48.2885C263.525 44.2441 262.243 40.3637 260.865 36.5162C260.605 35.7997 260.401 35.0562 260.056 34.3825C258.244 30.8505 258.077 27.1113 258.478 23.2606C258.994 18.3017 260.24 13.6128 263.22 9.51908C264.821 7.32533 266.778 5.5266 269.241 4.31987C269.25 4.44487 269.26 4.57258 269.27 4.70137C264.884 9.91681 263.88 16.1518 263.91 22.6719C263.936 28.0258 265.048 33.251 265.847 38.5157C266.475 42.6359 267.004 46.7728 266.722 50.9623C266.675 51.6263 266.521 52.2843 266.419 52.9418L265.63 55.2962C265.889 55.2205 266.008 55.1123 266.067 54.938C267.8 52.8958 268.616 50.5608 268.208 47.5948C269.517 49.2328 271.223 49.5976 272.792 50.209C273.926 50.6501 275.104 51.0213 276.067 51.794C277.189 52.6885 277.988 53.754 277.449 55.313C277.313 55.694 277.652 55.681 277.8 55.7827C278.56 56.3157 279.214 56.937 279.579 57.8152C279.869 58.5089 279.964 59.2162 279.625 60.0284ZM242.897 61.7086C242.611 61.6264 242.335 61.5214 242.052 61.4256C245.738 61.0869 248.369 58.325 248.61 54.4445C248.744 52.235 248.211 50.222 247.307 48.3183C246.991 47.6441 246.626 46.9866 246.229 46.3356C244.887 44.1489 243.266 42.1624 241.737 40.111C238.807 36.1845 237.248 31.8468 237.58 26.9013C237.758 24.2769 238.537 21.8207 239.615 19.4462C239.681 19.2984 239.846 19.1935 240.132 18.8872C239.606 20.6437 239.346 22.2054 239.382 23.8039C239.474 27.8678 240.944 31.4658 243.078 34.8425C244.328 36.8154 245.775 38.6375 247.255 40.4654C247.419 40.6694 247.587 40.8734 247.751 41.0774C248.06 40.7154 247.712 40.4594 247.59 40.2094C247.475 39.9724 247.359 39.7322 247.248 39.4957C245.367 35.5427 243.69 31.5145 242.69 27.2331C241.401 21.6924 241.322 16.1907 243.289 10.7686C243.884 9.13054 244.69 7.6051 245.765 6.17759C244.12 13.925 244.574 21.3044 247.172 28.3613C248.109 30.9095 249.326 33.4188 250.825 35.8847C251.095 35.3787 250.825 35.1022 250.717 34.8133C249.254 30.87 247.856 26.9111 247.136 22.7612C247.136 22.7579 247.133 22.7579 247.136 22.7547V22.7509C247.06 22.3272 246.995 21.9029 246.935 21.4754C246.501 18.312 246.465 15.1815 247.063 12.1035V12.097C247.294 10.9228 247.613 9.75556 248.037 8.59807C248.971 6.06287 250.391 3.86262 252.302 1.9719C252.463 1.81119 252.644 1.66941 252.953 1.61692C252.68 2.20567 252.381 2.78414 252.141 3.38588C250.408 7.75931 250.487 12.2583 251.269 16.7892C252.147 21.8829 254.101 26.6151 256.274 31.2618C258.303 35.599 260.263 39.9659 261.704 44.5401C262.437 46.8843 262.963 49.2621 262.539 51.7318C261.898 55.5132 259.678 58.22 256.468 60.1074C252.207 62.6129 247.646 63.0701 242.897 61.7086ZM232.069 67.7921C226.146 70.0313 220.964 68.6043 216.455 64.3164C216.847 64.1779 217.149 64.4511 217.488 64.5431C218.382 64.7866 219.204 65.2861 220.175 65.2471C224.038 66.0756 227.735 65.7996 231.148 63.5404C227.475 64.6189 223.828 64.3494 220.214 63.3364C217.985 62.7119 216.028 61.7119 214.4 60.2714C213.335 59.3315 212.411 58.1999 211.648 56.8617C214.407 58.5647 217.248 59.9954 220.303 60.8044H220.309C221.898 61.2249 223.545 61.4787 225.268 61.5149C225.571 61.5409 225.87 61.5707 226.169 61.5966C226.357 61.6497 226.527 61.6264 226.696 61.4884C226.475 61.3207 226.288 61.2812 226.084 61.3926C225.715 61.2974 225.364 61.1167 224.969 61.2152C224.285 61.0377 223.604 60.8472 222.94 60.6334H222.937C220.826 59.9494 218.82 59.0354 217.057 57.5982C215.985 56.7335 215.071 55.7405 214.528 54.4347C214.453 54.254 214.383 54.0668 214.324 53.8725C214.453 53.8888 214.555 53.8693 214.607 53.9088C214.828 54.0798 215.051 54.2475 215.275 54.4017C218.244 56.4802 221.701 57.3715 225.157 58.2589C227.83 58.9462 230.464 59.1534 233.065 58.8937C233.071 58.8937 233.078 58.8937 233.081 58.8904C233.085 58.8937 233.085 58.8937 233.088 58.8904C234.042 58.7985 234.992 58.641 235.936 58.4202H235.943C237.212 58.1242 238.475 57.72 239.731 57.2037C241.943 56.2989 243.986 55.0987 245.863 53.6225C246.051 53.4748 246.192 53.254 246.596 53.2183C245.699 54.931 244.749 56.5787 243.697 58.1242C240.812 62.3764 237.202 65.8516 232.069 67.7921ZM257.139 29.8603C257.152 29.8543 257.162 29.8473 257.169 29.8473C257.182 29.8473 257.182 29.8576 257.169 29.864C257.149 29.8808 257.1 29.9003 257.08 29.8603C257.093 29.8706 257.113 29.8738 257.139 29.8603ZM279.339 55.5365C279.082 55.2897 278.777 55.109 278.78 54.6583C278.793 52.7113 277.721 51.4158 276.159 50.4461C274.775 49.5873 273.229 49.1008 271.707 48.5618C270.694 48.2036 269.705 47.8086 269.164 46.7631C269.017 46.4801 268.721 46.3091 268.408 46.3123C267.991 46.3161 267.853 46.1711 267.829 45.7501C267.56 40.9984 266.643 36.3322 265.913 31.6395C265.028 25.9609 264.542 20.2617 265.853 14.5792C266.673 11.038 267.908 7.67706 270.618 5.07638C271.181 4.53037 271.513 3.94811 271.01 3.2349C270.5 2.50816 269.83 2.66941 269.142 3.0179C266.711 4.24086 264.64 5.90485 262.914 8.00931C260.605 10.821 259.234 14.0862 258.228 17.536V17.595C258.228 18.0322 257.902 18.3974 257.935 18.845C257.895 19.0057 257.856 19.1669 257.817 19.3314C257.879 19.6799 257.642 19.8839 257.472 20.1269V20.1302C257.435 20.1799 257.406 20.2357 257.379 20.2882C257.373 20.3174 257.369 20.3407 257.369 20.3704C257.363 20.4559 257.379 20.5382 257.409 20.6237C257.412 20.6302 257.416 20.6334 257.419 20.6399C257.448 20.7124 257.474 20.7811 257.507 20.8504L257.511 20.8537C257.551 20.9689 257.56 21.0842 257.557 21.1989C257.557 21.2021 257.553 21.2021 257.557 21.2059C257.551 21.3109 257.534 21.4191 257.514 21.5247L257.511 21.5312V21.5441C257.507 21.5609 257.504 21.5739 257.501 21.5907C257.498 21.6004 257.494 21.6102 257.494 21.6199C257.485 21.6924 257.485 21.7649 257.507 21.8369C257.514 21.8537 257.521 21.8699 257.524 21.8867V21.8899C257.56 22.0247 257.501 22.1264 257.428 22.2216V22.2249C257.402 22.2611 257.376 22.2942 257.349 22.3272V22.3304C257.317 22.3732 257.287 22.4191 257.271 22.4684C257.264 22.4781 257.261 22.4911 257.257 22.5046C257.255 22.5209 257.251 22.5371 257.248 22.5571C257.192 22.7119 257.149 22.8661 257.126 23.0306C257.12 23.0766 257.116 23.1259 257.113 23.1719C257.11 23.2644 257.103 23.3564 257.097 23.4484V23.4581C257.087 23.5566 257.077 23.6589 257.067 23.7606C257.064 23.8201 257.057 23.8759 257.054 23.9349C257.044 24.1486 257.008 24.3559 256.959 24.5631C256.955 24.6291 256.959 24.6946 256.955 24.7606V24.8656C256.935 26.5069 256.847 28.1541 257.054 29.7915C256.521 28.2033 255.673 26.7466 255.156 25.1551C255.146 25.1286 255.137 25.0988 255.127 25.0729C255.114 25.0366 255.104 25.0004 255.094 24.9641C254.771 24.1324 254.633 23.2346 254.206 22.4386C254.15 22.3564 254.101 22.2709 254.061 22.1821V22.1789C253.9 21.8239 253.841 21.4256 253.71 21.0577C253.71 21.0544 253.706 21.0512 253.706 21.0479C253.624 20.8174 253.509 20.5972 253.328 20.4067C252.897 19.4992 252.785 18.5089 252.592 17.5457C251.845 13.7513 251.618 9.95631 252.483 6.14186C252.795 4.76414 253.285 3.46489 254.015 2.25491C254.42 1.58066 254.679 0.896661 253.946 0.298168C253.203 -0.306819 252.588 0.110946 252.026 0.646668C251.759 0.896671 251.493 1.14667 251.233 1.40317C249.356 3.24465 248.054 5.45463 247.034 7.83832C246.959 8.01257 246.89 8.18357 246.817 8.35781C246.613 8.44007 246.629 8.63758 246.58 8.80208C246.558 8.6273 246.731 8.47632 246.642 8.28909C246.734 7.81181 246.794 7.32532 246.925 6.85832C246.925 6.85183 246.929 6.84859 246.929 6.8421C247.136 6.08235 247.188 5.34261 246.366 4.95462C245.475 4.54011 244.978 5.14511 244.519 5.82585C244.515 5.83234 244.512 5.83558 244.509 5.84207C242.338 9.07156 241.204 12.6593 240.783 16.5002C240.724 17.036 240.789 17.5787 239.935 17.503C239.494 17.4635 239.231 17.9072 239.007 18.2919C237.6 20.7324 236.768 23.3564 236.482 26.1513C235.923 31.6823 237.587 36.5427 240.891 40.9291C242.305 42.8004 243.778 44.6283 245.035 46.6186C246.094 48.2956 246.979 50.0445 247.307 52.0705C246.232 51.8238 246.205 51.8471 245.403 52.4916C241.362 55.7308 236.781 57.6377 231.578 57.8152C227.008 57.97 222.733 56.6117 218.56 54.9115C218.123 54.7307 217.682 54.5435 217.258 54.3227C216.571 53.9645 215.936 53.5273 215.429 52.9185C215.008 52.4125 214.594 52.0803 214.009 52.2578C213.946 52.2745 213.877 52.3005 213.808 52.3335C213.075 52.6788 212.996 53.346 213.171 54.0533C213.433 55.109 213.979 56.023 214.647 56.8644C214.443 57.2367 214.269 56.911 214.081 56.8384C213.476 56.4867 212.877 56.1252 212.266 55.7827C211.733 55.4867 211.213 55.4905 210.753 55.931C210.286 56.3779 210.293 56.8947 210.569 57.4369C210.918 58.1177 211.368 58.7324 211.842 59.3315C211.993 59.5219 212.151 59.7059 212.312 59.8834H212.315C213.285 60.9624 214.43 61.8499 215.646 62.6621C214.742 63.5436 214.624 64.1254 215.314 64.8126C218.945 68.4236 223.203 70.5145 228.454 69.8635C233.516 69.2391 237.606 66.6974 241.105 63.1129C241.493 62.7119 241.792 62.6064 242.351 62.7774C245.591 63.7736 248.872 63.8624 252.18 63.0929C253.121 62.8759 254.088 62.2411 255.005 63.2049C255.13 63.3331 255.403 63.3332 255.613 63.3694C256.82 63.5832 258.034 63.6097 259.254 63.4517C261.75 63.1324 263.986 62.1134 266.182 60.9624C269.135 59.4164 272.276 58.6632 275.616 58.9007C276.728 58.9792 277.83 59.1897 278.405 60.3206C278.698 60.8964 279.082 61.2844 279.74 61.2152C280.448 61.1399 280.756 60.6204 280.895 59.9722C281.273 58.1772 280.605 56.753 279.339 55.5365ZM233.088 58.8904C234.042 58.7985 234.992 58.641 235.936 58.4202C234.989 58.5549 234.038 58.7162 233.088 58.8904ZM274.919 53.8822C274.604 53.6847 274.212 53.7242 274.055 54.0798C273.92 54.3855 274.288 54.4515 274.498 54.5267C275.239 54.7865 275.991 55.0332 276.735 55.2832C276.751 55.2335 276.764 55.1907 276.774 55.1447C276.159 54.721 275.554 54.2805 274.919 53.8822ZM274.919 53.8822C274.604 53.6847 274.212 53.7242 274.055 54.0798C273.92 54.3855 274.288 54.4515 274.498 54.5267C275.239 54.7865 275.991 55.0332 276.735 55.2832C276.751 55.2335 276.764 55.1907 276.774 55.1447C276.159 54.721 275.554 54.2805 274.919 53.8822ZM274.919 53.8822C274.604 53.6847 274.212 53.7242 274.055 54.0798C273.92 54.3855 274.288 54.4515 274.498 54.5267C275.239 54.7865 275.991 55.0332 276.735 55.2832C276.751 55.2335 276.764 55.1907 276.774 55.1447C276.159 54.721 275.554 54.2805 274.919 53.8822ZM274.919 53.8822C274.604 53.6847 274.212 53.7242 274.055 54.0798C273.92 54.3855 274.288 54.4515 274.498 54.5267C275.239 54.7865 275.991 55.0332 276.735 55.2832C276.751 55.2335 276.764 55.1907 276.774 55.1447C276.159 54.721 275.554 54.2805 274.919 53.8822Z" fill="#3F006F"/>
<path d="M215.429 52.9185C215.008 52.4125 214.594 52.0803 214.009 52.2578L214.186 54.4477L214.528 54.4347L215.275 54.4017L217.258 54.3227C216.571 53.9645 215.936 53.5273 215.429 52.9185Z" fill="#FEFFFF"/>
<path d="M5.81829 72.9605C5.81829 71.9339 5.02174 71.1255 4.01956 71.1255C2.99357 71.1255 2.20893 71.9464 2.20893 72.9605C2.20893 73.9745 2.99357 74.7955 4.01956 74.7955C5.02174 74.7955 5.81829 73.9864 5.81829 72.9605ZM2.30525 75.4351V78.8393H0.65155V69.7126H2.29335V70.6184C2.72788 69.9783 3.46436 69.58 4.34587 69.58C5.98766 69.58 7.48444 70.896 7.48444 72.9724C7.48444 75.0487 5.96331 76.3647 4.35777 76.3647C3.47626 76.3647 2.74032 76.039 2.30525 75.4351Z" fill="#3F006F"/>
<path d="M8.57098 69.7126H10.2128V70.7148C10.5266 69.942 11.1787 69.5919 12.0115 69.5919C12.446 69.5919 12.8329 69.7007 13.1105 69.8457L12.5066 71.4875C12.3259 71.3549 12.0115 71.2581 11.6376 71.2581C10.7804 71.2581 10.2252 71.6926 10.2252 72.7911V76.2322H8.57098V69.7126Z" fill="#3F006F"/>
<path d="M17.215 66.8397H18.9174L17.0943 68.9035H15.8389L17.215 66.8397ZM14.873 72.2477H18.3498C18.1328 71.4387 17.5051 70.9923 16.6355 70.9923C15.7907 70.9923 15.1387 71.4874 14.873 72.2477ZM13.2188 72.9842C13.2188 71.0886 14.6917 69.58 16.6355 69.58C18.5911 69.58 20.0035 70.9923 20.0035 72.9242V73.5519H14.8248C15.0424 74.3971 15.7301 74.928 16.6961 74.928C17.4688 74.928 17.9878 74.5903 18.3141 74.0589L19.6782 74.8555C19.0262 75.7732 18.1084 76.3647 16.6717 76.3647C14.5716 76.3647 13.2188 74.8798 13.2188 72.9842Z" fill="#3F006F"/>
<path d="M21.2357 72.4529H25.7022V73.8896H21.2357V72.4529Z" fill="#3F006F"/>
<path d="M26.8732 72.9724C26.8732 71.053 28.3581 69.58 30.2899 69.58C31.7986 69.58 32.9577 70.4128 33.4653 71.6444L31.9317 72.2602C31.666 71.5595 31.0621 71.1374 30.3137 71.1374C29.3121 71.1374 28.5275 71.9583 28.5275 72.9724C28.5275 73.9621 29.324 74.783 30.3262 74.783C31.0989 74.783 31.6779 74.3122 31.9436 73.6482L33.501 74.2884C32.9458 75.4957 31.8592 76.3647 30.3018 76.3647C28.3462 76.3647 26.8732 74.868 26.8732 72.9724Z" fill="#3F006F"/>
<path d="M38.8615 73.8052V73.4551H37.3285C36.3382 73.4551 35.9399 73.7689 35.9399 74.2765C35.9399 74.7473 36.2657 74.9886 36.954 74.9886C37.7511 74.9886 38.5357 74.5054 38.8615 73.8052ZM34.2018 74.421C34.2018 73.0692 35.3241 72.2359 37.1353 72.2359H38.849V72.1515C38.849 71.4512 38.3782 70.968 37.4372 70.968C36.7002 70.968 36.2056 71.2824 35.9036 71.8257L34.3706 71.0649C35.0346 70.1958 35.9881 69.58 37.4486 69.58C39.3685 69.58 40.467 70.5822 40.467 72.224V76.2321H38.8615V75.23C38.3907 75.9064 37.4973 76.3647 36.4713 76.3647C35.0465 76.3647 34.2018 75.5682 34.2018 74.421Z" fill="#3F006F"/>
<path d="M41.7468 69.7126H43.4129V70.5335C43.8355 69.942 44.5114 69.58 45.3204 69.58C46.8659 69.58 47.8432 70.5941 47.8432 72.2965V76.2321H46.1413V72.5497C46.1413 71.6201 45.6943 71.0405 44.8134 71.0405C44.0282 71.0405 43.4248 71.6201 43.4248 72.6342V76.2321H41.7468V69.7126Z" fill="#3F006F"/>
<path d="M54.194 72.9604C54.194 71.9464 53.4093 71.1254 52.3828 71.1254C51.3806 71.1254 50.5722 71.9339 50.5722 72.9604C50.5722 73.9864 51.3806 74.7954 52.3828 74.7954C53.4093 74.7954 54.194 73.9745 54.194 72.9604ZM48.9185 72.9724C48.9185 70.896 50.4152 69.58 52.0814 69.58C52.9385 69.58 53.6507 69.942 54.0971 70.5459V66.7066H55.7394V76.2321H54.0971V75.3387C53.6382 75.9783 52.9023 76.3647 52.057 76.3647C50.4515 76.3647 48.9185 75.0487 48.9185 72.9724Z" fill="#3F006F"/>
<path d="M57.043 69.7131H58.7454V76.2321H57.043V69.7131ZM57.8882 66.791C58.5278 66.791 58.9624 67.2498 58.9624 67.8776C58.9624 68.4934 58.5278 68.9398 57.8882 68.9398C57.2605 68.9398 56.826 68.4934 56.826 67.8776C56.826 67.2498 57.2724 66.791 57.8882 66.791Z" fill="#3F006F"/>
<path d="M65.1199 72.9604C65.1199 71.9464 64.3347 71.1254 63.3087 71.1254C62.3066 71.1254 61.4976 71.9339 61.4976 72.9604C61.4976 73.9864 62.3066 74.7954 63.3087 74.7954C64.3347 74.7954 65.1199 73.9745 65.1199 72.9604ZM59.8439 72.9724C59.8439 70.896 61.3412 69.58 63.0068 69.58C63.864 69.58 64.5766 69.942 65.0231 70.5459V66.7066H66.6649V76.2321H65.0231V75.3387C64.5642 75.9783 63.8277 76.3647 62.983 76.3647C61.3774 76.3647 59.8439 75.0487 59.8439 72.9724Z" fill="#3F006F"/>
<path d="M72.3874 73.8052V73.4551H70.8543C69.8646 73.4551 69.4658 73.7689 69.4658 74.2765C69.4658 74.7473 69.7921 74.9886 70.4799 74.9886C71.2769 74.9886 72.0616 74.5054 72.3874 73.8052ZM67.7277 74.421C67.7277 73.0692 68.8505 72.2359 70.6611 72.2359H72.3754V72.1515C72.3754 71.4512 71.9047 70.968 70.9631 70.968C70.2266 70.968 69.7315 71.2824 69.4301 71.8257L67.8965 71.0649C68.5605 70.1958 69.5139 69.58 70.975 69.58C72.8944 69.58 73.9929 70.5822 73.9929 72.224V76.2321H72.3874V75.23C71.9166 75.9064 71.0232 76.3647 69.9972 76.3647C68.5724 76.3647 67.7277 75.5682 67.7277 74.421Z" fill="#3F006F"/>
<path d="M74.6813 69.7125H75.8885V68.3002L77.5309 67.3348V69.7125H79.2446V71.1855H77.5309V73.8657C77.5309 74.554 77.8204 74.7954 78.243 74.7954C78.4724 74.7954 78.6532 74.7229 78.8464 74.554L79.6072 75.8576C79.1846 76.1715 78.6532 76.3528 78.0498 76.3528C76.6856 76.3528 75.8885 75.7007 75.8885 73.9258V71.1855H74.6813V69.7125Z" fill="#3F006F"/>
<path d="M85.0639 72.9605C85.0639 71.9464 84.2674 71.1374 83.2776 71.1374C82.2754 71.1374 81.4908 71.9464 81.4908 72.9605C81.4908 73.9745 82.2754 74.7835 83.2776 74.7835C84.2674 74.7835 85.0639 73.9745 85.0639 72.9605ZM79.8246 72.9724C79.8246 71.0892 81.3095 69.58 83.2652 69.58C85.2089 69.58 86.7181 71.0892 86.7181 72.9724C86.7181 74.8436 85.2327 76.3647 83.2652 76.3647C81.3095 76.3647 79.8246 74.8436 79.8246 72.9724Z" fill="#3F006F"/>
<path d="M90.1468 69.7126H91.9093L93.5153 74.1071L95.1328 69.7126H96.859L94.2995 76.2321H92.6458L90.1468 69.7126Z" fill="#3F006F"/>
<path d="M98.7183 72.2478H102.195C101.978 71.4393 101.35 70.9924 100.481 70.9924C99.6361 70.9924 98.984 71.4875 98.7183 72.2478ZM97.0641 72.9848C97.0641 71.0892 98.5371 69.58 100.481 69.58C102.437 69.58 103.849 70.9924 103.849 72.9242V73.5519H98.6702C98.8872 74.3966 99.5755 74.928 100.541 74.928C101.314 74.928 101.833 74.5898 102.159 74.0589L103.523 74.8555C102.872 75.7733 101.954 76.3647 100.517 76.3647C98.4169 76.3647 97.0641 74.8799 97.0641 72.9848Z" fill="#3F006F"/>
<path d="M104.936 69.7126H106.578V70.7148C106.892 69.942 107.544 69.5919 108.377 69.5919C108.811 69.5919 109.197 69.7007 109.476 69.8457L108.872 71.4875C108.69 71.3549 108.377 71.2581 108.003 71.2581C107.145 71.2581 106.59 71.6926 106.59 72.7911V76.2322H104.936V69.7126Z" fill="#3F006F"/>
<path d="M111.238 72.2478H114.715C114.498 71.4393 113.87 70.9924 113 70.9924C112.156 70.9924 111.504 71.4875 111.238 72.2478ZM109.584 72.9848C109.584 71.0892 111.057 69.58 113 69.58C114.957 69.58 116.368 70.9924 116.368 72.9242V73.5519H111.19C111.407 74.3966 112.095 74.928 113.061 74.928C113.834 74.928 114.353 74.5898 114.679 74.0589L116.043 74.8555C115.391 75.7733 114.473 76.3647 113.037 76.3647C110.936 76.3647 109.584 74.8799 109.584 72.9848Z" fill="#3F006F"/>
<path d="M121.778 73.8052V73.4551H120.244C119.254 73.4551 118.856 73.7689 118.856 74.2765C118.856 74.7473 119.182 74.9886 119.87 74.9886C120.667 74.9886 121.451 74.5054 121.778 73.8052ZM117.117 74.421C117.117 73.0692 118.24 72.2359 120.051 72.2359H121.765V72.1515C121.765 71.4512 121.294 70.968 120.353 70.968C119.616 70.968 119.122 71.2824 118.82 71.8257L117.287 71.0649C117.95 70.1958 118.904 69.58 120.365 69.58C122.285 69.58 123.383 70.5822 123.383 72.224V76.2321H121.778V75.23C121.307 75.9064 120.413 76.3647 119.387 76.3647C117.963 76.3647 117.117 75.5682 117.117 74.421Z" fill="#3F006F"/>
<path d="M129.733 72.9604C129.733 71.9464 128.949 71.1254 127.922 71.1254C126.92 71.1254 126.112 71.9339 126.112 72.9604C126.112 73.9864 126.92 74.7954 127.922 74.7954C128.949 74.7954 129.733 73.9745 129.733 72.9604ZM124.458 72.9724C124.458 70.896 125.955 69.58 127.621 69.58C128.478 69.58 129.19 69.942 129.637 70.5459V66.7066H131.279V76.2321H129.637V75.3387C129.178 75.9783 128.442 76.3647 127.596 76.3647C125.991 76.3647 124.458 75.0487 124.458 72.9724Z" fill="#3F006F"/>
<path d="M137.605 72.9605C137.605 71.9464 136.808 71.1374 135.818 71.1374C134.816 71.1374 134.032 71.9464 134.032 72.9605C134.032 73.9745 134.816 74.7835 135.818 74.7835C136.808 74.7835 137.605 73.9745 137.605 72.9605ZM132.365 72.9724C132.365 71.0892 133.85 69.58 135.806 69.58C137.75 69.58 139.259 71.0892 139.259 72.9724C139.259 74.8436 137.774 76.3647 135.806 76.3647C133.85 76.3647 132.365 74.8436 132.365 72.9724Z" fill="#3F006F"/>
<path d="M140.357 69.7126H141.999V70.7148C142.313 69.942 142.965 69.5919 143.798 69.5919C144.232 69.5919 144.619 69.7007 144.897 69.8457L144.293 71.4875C144.112 71.3549 143.798 71.2581 143.424 71.2581C142.567 71.2581 142.012 71.6926 142.012 72.7911V76.2322H140.357V69.7126Z" fill="#3F006F"/>
</svg>
