<svg width="383" height="108" viewBox="0 0 383 108" fill="none" xmlns="http://www.w3.org/2000/svg">
<path d="M27.633 24.175L26.7725 67.4223C26.7725 67.7847 26.5397 68.1212 26.0736 68.4347L23.1829 68.8248L22.4787 68.3587V24.175C22.4787 24.0718 22.5595 23.9682 22.7168 23.8608C22.8688 23.7583 23.0256 23.7046 23.1829 23.7046H26.6965C27.3194 23.7046 27.633 23.8608 27.633 24.175Z" fill="#FFD800"/>
<path d="M51.7494 21.0503H48.3968C48.0832 21.0503 47.9265 21.2071 47.9265 21.5206V48.2157C47.9265 48.4755 48.0832 48.6058 48.3968 48.6058H51.7494C52.0635 48.6058 52.2203 48.449 52.2203 48.1397V21.5206C52.2203 21.2071 52.0635 21.0503 51.7494 21.0503ZM51.7494 21.0503H48.3968C48.0832 21.0503 47.9265 21.2071 47.9265 21.5206V48.2157C47.9265 48.4755 48.0832 48.6058 48.3968 48.6058H51.7494C52.0635 48.6058 52.2203 48.449 52.2203 48.1397V21.5206C52.2203 21.2071 52.0635 21.0503 51.7494 21.0503ZM51.7494 21.0503H48.3968C48.0832 21.0503 47.9265 21.2071 47.9265 21.5206V48.2157C47.9265 48.4755 48.0832 48.6058 48.3968 48.6058H51.7494C52.0635 48.6058 52.2203 48.449 52.2203 48.1397V21.5206C52.2203 21.2071 52.0635 21.0503 51.7494 21.0503ZM51.7494 21.0503H48.3968C48.0832 21.0503 47.9265 21.2071 47.9265 21.5206V48.2157C47.9265 48.4755 48.0832 48.6058 48.3968 48.6058H51.7494C52.0635 48.6058 52.2203 48.449 52.2203 48.1397V21.5206C52.2203 21.2071 52.0635 21.0503 51.7494 21.0503ZM51.7494 21.0503H48.3968C48.0832 21.0503 47.9265 21.2071 47.9265 21.5206V48.2157C47.9265 48.4755 48.0832 48.6058 48.3968 48.6058H51.7494C52.0635 48.6058 52.2203 48.449 52.2203 48.1397V21.5206C52.2203 21.2071 52.0635 21.0503 51.7494 21.0503ZM136.442 22.6144H132.386C131.915 22.6144 131.682 22.8477 131.682 23.3133V68.044C131.682 68.3575 131.915 68.5106 132.386 68.5106H135.662C136.132 68.5106 136.366 68.3575 136.366 68.044L137.145 23.3133C137.145 22.8477 136.913 22.6144 136.442 22.6144ZM136.442 22.6144H132.386C131.915 22.6144 131.682 22.8477 131.682 23.3133V68.044C131.682 68.3575 131.915 68.5106 132.386 68.5106H135.662C136.132 68.5106 136.366 68.3575 136.366 68.044L137.145 23.3133C137.145 22.8477 136.913 22.6144 136.442 22.6144ZM51.7494 21.0503H48.3968C48.0832 21.0503 47.9265 21.2071 47.9265 21.5206V48.2157C47.9265 48.4755 48.0832 48.6058 48.3968 48.6058H51.7494C52.0635 48.6058 52.2203 48.449 52.2203 48.1397V21.5206C52.2203 21.2071 52.0635 21.0503 51.7494 21.0503ZM51.7494 21.0503H48.3968C48.0832 21.0503 47.9265 21.2071 47.9265 21.5206V48.2157C47.9265 48.4755 48.0832 48.6058 48.3968 48.6058H51.7494C52.0635 48.6058 52.2203 48.449 52.2203 48.1397V21.5206C52.2203 21.2071 52.0635 21.0503 51.7494 21.0503ZM136.442 22.6144H132.386C131.915 22.6144 131.682 22.8477 131.682 23.3133V68.044C131.682 68.3575 131.915 68.5106 132.386 68.5106H135.662C136.132 68.5106 136.366 68.3575 136.366 68.044L137.145 23.3133C137.145 22.8477 136.913 22.6144 136.442 22.6144ZM173.755 22.0675L169.385 22.6144V44.1594L174.458 43.9219C174.768 43.9219 174.925 43.7651 174.925 43.4558V23.2373L173.755 22.0675ZM196.703 21.83L193.345 22.6144C193.037 22.767 192.88 23.0311 192.88 23.3941V50.8688C192.88 51.1335 193.037 51.2589 193.345 51.2589L196.237 50.7928C196.546 50.7928 196.703 50.636 196.703 50.3224L197.173 22.3009C197.173 21.9868 197.016 21.83 196.703 21.83ZM196.703 21.83L193.345 22.6144C193.037 22.767 192.88 23.0311 192.88 23.3941V50.8688C192.88 51.1335 193.037 51.2589 193.345 51.2589L196.237 50.7928C196.546 50.7928 196.703 50.636 196.703 50.3224L197.173 22.3009C197.173 21.9868 197.016 21.83 196.703 21.83ZM173.755 22.0675L169.385 22.6144V44.1594L174.458 43.9219C174.768 43.9219 174.925 43.7651 174.925 43.4558V23.2373L173.755 22.0675ZM136.442 22.6144H132.386C131.915 22.6144 131.682 22.8477 131.682 23.3133V68.044C131.682 68.3575 131.915 68.5106 132.386 68.5106H135.662C136.132 68.5106 136.366 68.3575 136.366 68.044L137.145 23.3133C137.145 22.8477 136.913 22.6144 136.442 22.6144ZM51.7494 21.0503H48.3968C48.0832 21.0503 47.9265 21.2071 47.9265 21.5206V48.2157C47.9265 48.4755 48.0832 48.6058 48.3968 48.6058H51.7494C52.0635 48.6058 52.2203 48.449 52.2203 48.1397V21.5206C52.2203 21.2071 52.0635 21.0503 51.7494 21.0503ZM51.7494 21.0503H48.3968C48.0832 21.0503 47.9265 21.2071 47.9265 21.5206V48.2157C47.9265 48.4755 48.0832 48.6058 48.3968 48.6058H51.7494C52.0635 48.6058 52.2203 48.449 52.2203 48.1397V21.5206C52.2203 21.2071 52.0635 21.0503 51.7494 21.0503ZM136.442 22.6144H132.386C131.915 22.6144 131.682 22.8477 131.682 23.3133V68.044C131.682 68.3575 131.915 68.5106 132.386 68.5106H135.662C136.132 68.5106 136.366 68.3575 136.366 68.044L137.145 23.3133C137.145 22.8477 136.913 22.6144 136.442 22.6144ZM173.755 22.0675L169.385 22.6144V44.1594L174.458 43.9219C174.768 43.9219 174.925 43.7651 174.925 43.4558V23.2373L173.755 22.0675ZM196.703 21.83L193.345 22.6144C193.037 22.767 192.88 23.0311 192.88 23.3941V50.8688C192.88 51.1335 193.037 51.2589 193.345 51.2589L196.237 50.7928C196.546 50.7928 196.703 50.636 196.703 50.3224L197.173 22.3009C197.173 21.9868 197.016 21.83 196.703 21.83ZM196.703 21.83L193.345 22.6144C193.037 22.767 192.88 23.0311 192.88 23.3941V50.8688C192.88 51.1335 193.037 51.2589 193.345 51.2589L196.237 50.7928C196.546 50.7928 196.703 50.636 196.703 50.3224L197.173 22.3009C197.173 21.9868 197.016 21.83 196.703 21.83ZM173.755 22.0675L169.385 22.6144V44.1594L174.458 43.9219C174.768 43.9219 174.925 43.7651 174.925 43.4558V23.2373L173.755 22.0675ZM136.442 22.6144H132.386C131.915 22.6144 131.682 22.8477 131.682 23.3133V68.044C131.682 68.3575 131.915 68.5106 132.386 68.5106H135.662C136.132 68.5106 136.366 68.3575 136.366 68.044L137.145 23.3133C137.145 22.8477 136.913 22.6144 136.442 22.6144ZM51.7494 21.0503H48.3968C48.0832 21.0503 47.9265 21.2071 47.9265 21.5206V48.2157C47.9265 48.4755 48.0832 48.6058 48.3968 48.6058H51.7494C52.0635 48.6058 52.2203 48.449 52.2203 48.1397V21.5206C52.2203 21.2071 52.0635 21.0503 51.7494 21.0503ZM51.7494 21.0503H48.3968C48.0832 21.0503 47.9265 21.2071 47.9265 21.5206V48.2157C47.9265 48.4755 48.0832 48.6058 48.3968 48.6058H51.7494C52.0635 48.6058 52.2203 48.449 52.2203 48.1397V21.5206C52.2203 21.2071 52.0635 21.0503 51.7494 21.0503ZM136.442 22.6144H132.386C131.915 22.6144 131.682 22.8477 131.682 23.3133V68.044C131.682 68.3575 131.915 68.5106 132.386 68.5106H135.662C136.132 68.5106 136.366 68.3575 136.366 68.044L137.145 23.3133C137.145 22.8477 136.913 22.6144 136.442 22.6144ZM173.755 22.0675L169.385 22.6144V44.1594L174.458 43.9219C174.768 43.9219 174.925 43.7651 174.925 43.4558V23.2373L173.755 22.0675ZM196.703 21.83L193.345 22.6144C193.037 22.767 192.88 23.0311 192.88 23.3941V50.8688C192.88 51.1335 193.037 51.2589 193.345 51.2589L196.237 50.7928C196.546 50.7928 196.703 50.636 196.703 50.3224L197.173 22.3009C197.173 21.9868 197.016 21.83 196.703 21.83ZM196.703 21.83L193.345 22.6144C193.037 22.767 192.88 23.0311 192.88 23.3941V50.8688C192.88 51.1335 193.037 51.2589 193.345 51.2589L196.237 50.7928C196.546 50.7928 196.703 50.636 196.703 50.3224L197.173 22.3009C197.173 21.9868 197.016 21.83 196.703 21.83ZM173.755 22.0675L169.385 22.6144V44.1594L174.458 43.9219C174.768 43.9219 174.925 43.7651 174.925 43.4558V23.2373L173.755 22.0675ZM136.442 22.6144H132.386C131.915 22.6144 131.682 22.8477 131.682 23.3133V68.044C131.682 68.3575 131.915 68.5106 132.386 68.5106H135.662C136.132 68.5106 136.366 68.3575 136.366 68.044L137.145 23.3133C137.145 22.8477 136.913 22.6144 136.442 22.6144ZM51.7494 21.0503H48.3968C48.0832 21.0503 47.9265 21.2071 47.9265 21.5206V48.2157C47.9265 48.4755 48.0832 48.6058 48.3968 48.6058H51.7494C52.0635 48.6058 52.2203 48.449 52.2203 48.1397V21.5206C52.2203 21.2071 52.0635 21.0503 51.7494 21.0503ZM51.7494 21.0503H48.3968C48.0832 21.0503 47.9265 21.2071 47.9265 21.5206V48.2157C47.9265 48.4755 48.0832 48.6058 48.3968 48.6058H51.7494C52.0635 48.6058 52.2203 48.449 52.2203 48.1397V21.5206C52.2203 21.2071 52.0635 21.0503 51.7494 21.0503ZM136.442 22.6144H132.386C131.915 22.6144 131.682 22.8477 131.682 23.3133V68.044C131.682 68.3575 131.915 68.5106 132.386 68.5106H135.662C136.132 68.5106 136.366 68.3575 136.366 68.044L137.145 23.3133C137.145 22.8477 136.913 22.6144 136.442 22.6144ZM173.755 22.0675L169.385 22.6144V44.1594L174.458 43.9219C174.768 43.9219 174.925 43.7651 174.925 43.4558V23.2373L173.755 22.0675ZM196.703 21.83L193.345 22.6144C193.037 22.767 192.88 23.0311 192.88 23.3941V50.8688C192.88 51.1335 193.037 51.2589 193.345 51.2589L196.237 50.7928C196.546 50.7928 196.703 50.636 196.703 50.3224L197.173 22.3009C197.173 21.9868 197.016 21.83 196.703 21.83ZM266.412 21.0503H263.055C262.741 21.0503 262.583 21.2071 262.583 21.5206V48.2157C262.583 48.4755 262.741 48.6058 263.055 48.6058H266.412C266.72 48.6058 266.878 48.449 266.878 48.1397V21.5206C266.878 21.2071 266.72 21.0503 266.412 21.0503ZM290.256 22.65C289.606 22.1568 288.239 21.9108 286.159 21.9108C285.532 22.117 285.223 22.4311 285.223 22.8478V44.0786C285.223 44.2354 285.312 44.3789 285.496 44.5086C285.676 44.6388 285.895 44.7021 286.159 44.7021H290.296C290.606 44.7021 290.762 44.5495 290.762 44.2354L291.233 24.4879C291.233 23.7576 290.906 23.1475 290.256 22.65ZM290.256 22.65C289.606 22.1568 288.239 21.9108 286.159 21.9108C285.532 22.117 285.223 22.4311 285.223 22.8478V44.0786C285.223 44.2354 285.312 44.3789 285.496 44.5086C285.676 44.6388 285.895 44.7021 286.159 44.7021H290.296C290.606 44.7021 290.762 44.5495 290.762 44.2354L291.233 24.4879C291.233 23.7576 290.906 23.1475 290.256 22.65ZM266.412 21.0503H263.055C262.741 21.0503 262.583 21.2071 262.583 21.5206V48.2157C262.583 48.4755 262.741 48.6058 263.055 48.6058H266.412C266.72 48.6058 266.878 48.449 266.878 48.1397V21.5206C266.878 21.2071 266.72 21.0503 266.412 21.0503ZM196.703 21.83L193.345 22.6144C193.037 22.767 192.88 23.0311 192.88 23.3941V50.8688C192.88 51.1335 193.037 51.2589 193.345 51.2589L196.237 50.7928C196.546 50.7928 196.703 50.636 196.703 50.3224L197.173 22.3009C197.173 21.9868 197.016 21.83 196.703 21.83ZM173.755 22.0675L169.385 22.6144V44.1594L174.458 43.9219C174.768 43.9219 174.925 43.7651 174.925 43.4558V23.2373L173.755 22.0675ZM136.442 22.6144H132.386C131.915 22.6144 131.682 22.8477 131.682 23.3133V68.044C131.682 68.3575 131.915 68.5106 132.386 68.5106H135.662C136.132 68.5106 136.366 68.3575 136.366 68.044L137.145 23.3133C137.145 22.8477 136.913 22.6144 136.442 22.6144ZM51.7494 21.0503H48.3968C48.0832 21.0503 47.9265 21.2071 47.9265 21.5206V48.2157C47.9265 48.4755 48.0832 48.6058 48.3968 48.6058H51.7494C52.0635 48.6058 52.2203 48.449 52.2203 48.1397V21.5206C52.2203 21.2071 52.0635 21.0503 51.7494 21.0503ZM51.7494 21.0503H48.3968C48.0832 21.0503 47.9265 21.2071 47.9265 21.5206V48.2157C47.9265 48.4755 48.0832 48.6058 48.3968 48.6058H51.7494C52.0635 48.6058 52.2203 48.449 52.2203 48.1397V21.5206C52.2203 21.2071 52.0635 21.0503 51.7494 21.0503ZM136.442 22.6144H132.386C131.915 22.6144 131.682 22.8477 131.682 23.3133V68.044C131.682 68.3575 131.915 68.5106 132.386 68.5106H135.662C136.132 68.5106 136.366 68.3575 136.366 68.044L137.145 23.3133C137.145 22.8477 136.913 22.6144 136.442 22.6144ZM169.385 22.6144V44.1594L174.458 43.9219C174.768 43.9219 174.925 43.7651 174.925 43.4558V23.2373L173.755 22.0675L169.385 22.6144ZM196.703 21.83L193.345 22.6144C193.037 22.767 192.88 23.0311 192.88 23.3941V50.8688C192.88 51.1335 193.037 51.2589 193.345 51.2589L196.237 50.7928C196.546 50.7928 196.703 50.636 196.703 50.3224L197.173 22.3009C197.173 21.9868 197.016 21.83 196.703 21.83ZM266.412 21.0503H263.055C262.741 21.0503 262.583 21.2071 262.583 21.5206V48.2157C262.583 48.4755 262.741 48.6058 263.055 48.6058H266.412C266.72 48.6058 266.878 48.449 266.878 48.1397V21.5206C266.878 21.2071 266.72 21.0503 266.412 21.0503ZM290.256 22.65C289.606 22.1568 288.239 21.9108 286.159 21.9108C285.532 22.117 285.223 22.4311 285.223 22.8478V44.0786C285.223 44.2354 285.312 44.3789 285.496 44.5086C285.676 44.6388 285.895 44.7021 286.159 44.7021H290.296C290.606 44.7021 290.762 44.5495 290.762 44.2354L291.233 24.4879C291.233 23.7576 290.906 23.1475 290.256 22.65ZM315.427 23.7842L310.591 23.5514L309.887 24.0175L309.417 69.057L314.961 69.5279L315.665 68.8237L316.13 24.2503C316.13 23.9904 315.897 23.8379 315.427 23.7842ZM51.7494 21.0503H48.3968C48.0832 21.0503 47.9265 21.2071 47.9265 21.5206V48.2157C47.9265 48.4755 48.0832 48.6058 48.3968 48.6058H51.7494C52.0635 48.6058 52.2203 48.449 52.2203 48.1397V21.5206C52.2203 21.2071 52.0635 21.0503 51.7494 21.0503ZM136.442 22.6144H132.386C131.915 22.6144 131.682 22.8477 131.682 23.3133V68.044C131.682 68.3575 131.915 68.5106 132.386 68.5106H135.662C136.132 68.5106 136.366 68.3575 136.366 68.044L137.145 23.3133C137.145 22.8477 136.913 22.6144 136.442 22.6144ZM173.755 22.0675L169.385 22.6144V44.1594L174.458 43.9219C174.768 43.9219 174.925 43.7651 174.925 43.4558V23.2373L173.755 22.0675ZM196.703 21.83L193.345 22.6144C193.037 22.767 192.88 23.0311 192.88 23.3941V50.8688C192.88 51.1335 193.037 51.2589 193.345 51.2589L196.237 50.7928C196.546 50.7928 196.703 50.636 196.703 50.3224L197.173 22.3009C197.173 21.9868 197.016 21.83 196.703 21.83ZM266.412 21.0503H263.055C262.741 21.0503 262.583 21.2071 262.583 21.5206V48.2157C262.583 48.4755 262.741 48.6058 263.055 48.6058H266.412C266.72 48.6058 266.878 48.449 266.878 48.1397V21.5206C266.878 21.2071 266.72 21.0503 266.412 21.0503ZM315.427 23.7842L310.591 23.5514L309.887 24.0175L309.417 69.057L314.961 69.5279L315.665 68.8237L316.13 24.2503C316.13 23.9904 315.897 23.8379 315.427 23.7842ZM290.256 22.65C289.606 22.1568 288.239 21.9108 286.159 21.9108C285.532 22.117 285.223 22.4311 285.223 22.8478V44.0786C285.223 44.2354 285.312 44.3789 285.496 44.5086C285.676 44.6388 285.895 44.7021 286.159 44.7021H290.296C290.606 44.7021 290.762 44.5495 290.762 44.2354L291.233 24.4879C291.233 23.7576 290.906 23.1475 290.256 22.65ZM315.427 23.7842L310.591 23.5514L309.887 24.0175L309.417 69.057L314.961 69.5279L315.665 68.8237L316.13 24.2503C316.13 23.9904 315.897 23.8379 315.427 23.7842ZM290.256 22.65C289.606 22.1568 288.239 21.9108 286.159 21.9108C285.532 22.117 285.223 22.4311 285.223 22.8478V44.0786C285.223 44.2354 285.312 44.3789 285.496 44.5086C285.676 44.6388 285.895 44.7021 286.159 44.7021H290.296C290.606 44.7021 290.762 44.5495 290.762 44.2354L291.233 24.4879C291.233 23.7576 290.906 23.1475 290.256 22.65ZM266.412 21.0503H263.055C262.741 21.0503 262.583 21.2071 262.583 21.5206V48.2157C262.583 48.4755 262.741 48.6058 263.055 48.6058H266.412C266.72 48.6058 266.878 48.449 266.878 48.1397V21.5206C266.878 21.2071 266.72 21.0503 266.412 21.0503ZM196.703 21.83L193.345 22.6144C193.037 22.767 192.88 23.0311 192.88 23.3941V50.8688C192.88 51.1335 193.037 51.2589 193.345 51.2589L196.237 50.7928C196.546 50.7928 196.703 50.636 196.703 50.3224L197.173 22.3009C197.173 21.9868 197.016 21.83 196.703 21.83ZM173.755 22.0675L169.385 22.6144V44.1594L174.458 43.9219C174.768 43.9219 174.925 43.7651 174.925 43.4558V23.2373L173.755 22.0675ZM136.442 22.6144H132.386C131.915 22.6144 131.682 22.8477 131.682 23.3133V68.044C131.682 68.3575 131.915 68.5106 132.386 68.5106H135.662C136.132 68.5106 136.366 68.3575 136.366 68.044L137.145 23.3133C137.145 22.8477 136.913 22.6144 136.442 22.6144ZM51.7494 21.0503H48.3968C48.0832 21.0503 47.9265 21.2071 47.9265 21.5206V48.2157C47.9265 48.4755 48.0832 48.6058 48.3968 48.6058H51.7494C52.0635 48.6058 52.2203 48.449 52.2203 48.1397V21.5206C52.2203 21.2071 52.0635 21.0503 51.7494 21.0503ZM51.7494 21.0503H48.3968C48.0832 21.0503 47.9265 21.2071 47.9265 21.5206V48.2157C47.9265 48.4755 48.0832 48.6058 48.3968 48.6058H51.7494C52.0635 48.6058 52.2203 48.449 52.2203 48.1397V21.5206C52.2203 21.2071 52.0635 21.0503 51.7494 21.0503ZM136.442 22.6144H132.386C131.915 22.6144 131.682 22.8477 131.682 23.3133V68.044C131.682 68.3575 131.915 68.5106 132.386 68.5106H135.662C136.132 68.5106 136.366 68.3575 136.366 68.044L137.145 23.3133C137.145 22.8477 136.913 22.6144 136.442 22.6144ZM173.755 22.0675L169.385 22.6144V44.1594L174.458 43.9219C174.768 43.9219 174.925 43.7651 174.925 43.4558V23.2373L173.755 22.0675ZM196.703 21.83L193.345 22.6144C193.037 22.767 192.88 23.0311 192.88 23.3941V50.8688C192.88 51.1335 193.037 51.2589 193.345 51.2589L196.237 50.7928C196.546 50.7928 196.703 50.636 196.703 50.3224L197.173 22.3009C197.173 21.9868 197.016 21.83 196.703 21.83ZM266.412 21.0503H263.055C262.741 21.0503 262.583 21.2071 262.583 21.5206V48.2157C262.583 48.4755 262.741 48.6058 263.055 48.6058H266.412C266.72 48.6058 266.878 48.449 266.878 48.1397V21.5206C266.878 21.2071 266.72 21.0503 266.412 21.0503ZM266.412 21.0503H263.055C262.741 21.0503 262.583 21.2071 262.583 21.5206V48.2157C262.583 48.4755 262.741 48.6058 263.055 48.6058H266.412C266.72 48.6058 266.878 48.449 266.878 48.1397V21.5206C266.878 21.2071 266.72 21.0503 266.412 21.0503ZM196.703 21.83L193.345 22.6144C193.037 22.767 192.88 23.0311 192.88 23.3941V50.8688C192.88 51.1335 193.037 51.2589 193.345 51.2589L196.237 50.7928C196.546 50.7928 196.703 50.636 196.703 50.3224L197.173 22.3009C197.173 21.9868 197.016 21.83 196.703 21.83ZM173.755 22.0675L169.385 22.6144V44.1594L174.458 43.9219C174.768 43.9219 174.925 43.7651 174.925 43.4558V23.2373L173.755 22.0675ZM136.442 22.6144H132.386C131.915 22.6144 131.682 22.8477 131.682 23.3133V68.044C131.682 68.3575 131.915 68.5106 132.386 68.5106H135.662C136.132 68.5106 136.366 68.3575 136.366 68.044L137.145 23.3133C137.145 22.8477 136.913 22.6144 136.442 22.6144ZM51.7494 21.0503H48.3968C48.0832 21.0503 47.9265 21.2071 47.9265 21.5206V48.2157C47.9265 48.4755 48.0832 48.6058 48.3968 48.6058H51.7494C52.0635 48.6058 52.2203 48.449 52.2203 48.1397V21.5206C52.2203 21.2071 52.0635 21.0503 51.7494 21.0503ZM51.7494 21.0503H48.3968C48.0832 21.0503 47.9265 21.2071 47.9265 21.5206V48.2157C47.9265 48.4755 48.0832 48.6058 48.3968 48.6058H51.7494C52.0635 48.6058 52.2203 48.449 52.2203 48.1397V21.5206C52.2203 21.2071 52.0635 21.0503 51.7494 21.0503ZM136.442 22.6144H132.386C131.915 22.6144 131.682 22.8477 131.682 23.3133V68.044C131.682 68.3575 131.915 68.5106 132.386 68.5106H135.662C136.132 68.5106 136.366 68.3575 136.366 68.044L137.145 23.3133C137.145 22.8477 136.913 22.6144 136.442 22.6144ZM173.755 22.0675L169.385 22.6144V44.1594L174.458 43.9219C174.768 43.9219 174.925 43.7651 174.925 43.4558V23.2373L173.755 22.0675ZM196.703 21.83L193.345 22.6144C193.037 22.767 192.88 23.0311 192.88 23.3941V50.8688C192.88 51.1335 193.037 51.2589 193.345 51.2589L196.237 50.7928C196.546 50.7928 196.703 50.636 196.703 50.3224L197.173 22.3009C197.173 21.9868 197.016 21.83 196.703 21.83ZM196.703 21.83L193.345 22.6144C193.037 22.767 192.88 23.0311 192.88 23.3941V50.8688C192.88 51.1335 193.037 51.2589 193.345 51.2589L196.237 50.7928C196.546 50.7928 196.703 50.636 196.703 50.3224L197.173 22.3009C197.173 21.9868 197.016 21.83 196.703 21.83ZM173.755 22.0675L169.385 22.6144V44.1594L174.458 43.9219C174.768 43.9219 174.925 43.7651 174.925 43.4558V23.2373L173.755 22.0675ZM136.442 22.6144H132.386C131.915 22.6144 131.682 22.8477 131.682 23.3133V68.044C131.682 68.3575 131.915 68.5106 132.386 68.5106H135.662C136.132 68.5106 136.366 68.3575 136.366 68.044L137.145 23.3133C137.145 22.8477 136.913 22.6144 136.442 22.6144ZM51.7494 21.0503H48.3968C48.0832 21.0503 47.9265 21.2071 47.9265 21.5206V48.2157C47.9265 48.4755 48.0832 48.6058 48.3968 48.6058H51.7494C52.0635 48.6058 52.2203 48.449 52.2203 48.1397V21.5206C52.2203 21.2071 52.0635 21.0503 51.7494 21.0503ZM51.7494 21.0503H48.3968C48.0832 21.0503 47.9265 21.2071 47.9265 21.5206V48.2157C47.9265 48.4755 48.0832 48.6058 48.3968 48.6058H51.7494C52.0635 48.6058 52.2203 48.449 52.2203 48.1397V21.5206C52.2203 21.2071 52.0635 21.0503 51.7494 21.0503ZM136.442 22.6144H132.386C131.915 22.6144 131.682 22.8477 131.682 23.3133V68.044C131.682 68.3575 131.915 68.5106 132.386 68.5106H135.662C136.132 68.5106 136.366 68.3575 136.366 68.044L137.145 23.3133C137.145 22.8477 136.913 22.6144 136.442 22.6144ZM173.755 22.0675L169.385 22.6144V44.1594L174.458 43.9219C174.768 43.9219 174.925 43.7651 174.925 43.4558V23.2373L173.755 22.0675ZM196.703 21.83L193.345 22.6144C193.037 22.767 192.88 23.0311 192.88 23.3941V50.8688C192.88 51.1335 193.037 51.2589 193.345 51.2589L196.237 50.7928C196.546 50.7928 196.703 50.636 196.703 50.3224L197.173 22.3009C197.173 21.9868 197.016 21.83 196.703 21.83ZM196.703 21.83L193.345 22.6144C193.037 22.767 192.88 23.0311 192.88 23.3941V50.8688C192.88 51.1335 193.037 51.2589 193.345 51.2589L196.237 50.7928C196.546 50.7928 196.703 50.636 196.703 50.3224L197.173 22.3009C197.173 21.9868 197.016 21.83 196.703 21.83ZM173.755 22.0675L169.385 22.6144V44.1594L174.458 43.9219C174.768 43.9219 174.925 43.7651 174.925 43.4558V23.2373L173.755 22.0675ZM136.442 22.6144H132.386C131.915 22.6144 131.682 22.8477 131.682 23.3133V68.044C131.682 68.3575 131.915 68.5106 132.386 68.5106H135.662C136.132 68.5106 136.366 68.3575 136.366 68.044L137.145 23.3133C137.145 22.8477 136.913 22.6144 136.442 22.6144ZM51.7494 21.0503H48.3968C48.0832 21.0503 47.9265 21.2071 47.9265 21.5206V48.2157C47.9265 48.4755 48.0832 48.6058 48.3968 48.6058H51.7494C52.0635 48.6058 52.2203 48.449 52.2203 48.1397V21.5206C52.2203 21.2071 52.0635 21.0503 51.7494 21.0503ZM51.7494 21.0503H48.3968C48.0832 21.0503 47.9265 21.2071 47.9265 21.5206V48.2157C47.9265 48.4755 48.0832 48.6058 48.3968 48.6058H51.7494C52.0635 48.6058 52.2203 48.449 52.2203 48.1397V21.5206C52.2203 21.2071 52.0635 21.0503 51.7494 21.0503ZM136.442 22.6144H132.386C131.915 22.6144 131.682 22.8477 131.682 23.3133V68.044C131.682 68.3575 131.915 68.5106 132.386 68.5106H135.662C136.132 68.5106 136.366 68.3575 136.366 68.044L137.145 23.3133C137.145 22.8477 136.913 22.6144 136.442 22.6144ZM173.755 22.0675L169.385 22.6144V44.1594L174.458 43.9219C174.768 43.9219 174.925 43.7651 174.925 43.4558V23.2373L173.755 22.0675ZM173.755 22.0675L169.385 22.6144V44.1594L174.458 43.9219C174.768 43.9219 174.925 43.7651 174.925 43.4558V23.2373L173.755 22.0675ZM136.442 22.6144H132.386C131.915 22.6144 131.682 22.8477 131.682 23.3133V68.044C131.682 68.3575 131.915 68.5106 132.386 68.5106H135.662C136.132 68.5106 136.366 68.3575 136.366 68.044L137.145 23.3133C137.145 22.8477 136.913 22.6144 136.442 22.6144ZM51.7494 21.0503H48.3968C48.0832 21.0503 47.9265 21.2071 47.9265 21.5206V48.2157C47.9265 48.4755 48.0832 48.6058 48.3968 48.6058H51.7494C52.0635 48.6058 52.2203 48.449 52.2203 48.1397V21.5206C52.2203 21.2071 52.0635 21.0503 51.7494 21.0503ZM51.7494 21.0503H48.3968C48.0832 21.0503 47.9265 21.2071 47.9265 21.5206V48.2157C47.9265 48.4755 48.0832 48.6058 48.3968 48.6058H51.7494C52.0635 48.6058 52.2203 48.449 52.2203 48.1397V21.5206C52.2203 21.2071 52.0635 21.0503 51.7494 21.0503ZM51.7494 21.0503H48.3968C48.0832 21.0503 47.9265 21.2071 47.9265 21.5206V48.2157C47.9265 48.4755 48.0832 48.6058 48.3968 48.6058H51.7494C52.0635 48.6058 52.2203 48.449 52.2203 48.1397V21.5206C52.2203 21.2071 52.0635 21.0503 51.7494 21.0503ZM51.7494 21.0503H48.3968C48.0832 21.0503 47.9265 21.2071 47.9265 21.5206V48.2157C47.9265 48.4755 48.0832 48.6058 48.3968 48.6058H51.7494C52.0635 48.6058 52.2203 48.449 52.2203 48.1397V21.5206C52.2203 21.2071 52.0635 21.0503 51.7494 21.0503ZM51.7494 21.0503H48.3968C48.0832 21.0503 47.9265 21.2071 47.9265 21.5206V48.2157C47.9265 48.4755 48.0832 48.6058 48.3968 48.6058H51.7494C52.0635 48.6058 52.2203 48.449 52.2203 48.1397V21.5206C52.2203 21.2071 52.0635 21.0503 51.7494 21.0503Z" fill="#FFD800"/>
<path d="M320.505 69.032H310.12C307.987 69.032 306.504 68.6913 305.67 68.0147C304.84 67.3376 304.423 66.2215 304.423 64.6574V15.4804C305.566 14.8575 307.063 14.3872 308.91 14.0778C310.757 13.7643 313.217 13.6075 316.288 13.6075C317.695 13.6075 318.838 13.9567 319.721 14.6603C320.608 15.364 321.048 16.2606 321.048 17.3544L320.505 69.032ZM296.119 69.0947C295.182 68.6063 294.317 68.01 293.626 67.1809C293.052 66.491 292.488 66.0377 291.69 66.28L290.686 53.9636L286.393 44.7531H284.129V69.032H279.602V16.807L277.886 15.8705V13.6075H290.059C292.04 13.6075 293.689 13.9838 295.016 14.7411C296.342 15.4942 297.033 16.3903 297.086 17.4304L296.307 39.0562C296.307 39.8364 295.953 40.7861 295.253 41.9022C294.55 43.0226 293.264 43.8432 291.39 44.363L295.993 52.95L297.633 69.032L296.119 69.0947ZM271.795 69.032H267.268L265.238 47.3302H261.258L257.667 69.032H253.996L257.51 13.6075H271.795V69.032ZM247.991 64.3486C247.991 65.3882 247.314 66.4278 245.96 67.4673C244.607 68.5122 243.356 69.032 242.213 69.032H233.079L232.375 55.6797H236.983L236.902 62.4746L242.37 63.7204L243.616 42.9599L233.079 40.6161V15.4804L236.203 13.6075H248.456L248.067 24.6149H245.18L243.616 18.5242L238.932 19.0711L237.762 36.4025L249.08 38.429L247.991 64.3486ZM226.288 17.4304L215.204 18.9143L216.374 36.1649L226.288 38.7421V64.3486C226.288 65.4376 225.742 66.4947 224.648 67.5083C223.554 68.5207 222.438 69.032 221.291 69.032H210.131V63.7204H220.982L219.108 42.8031L210.131 40.4587V17.2784C210.131 16.4445 210.454 15.6244 211.108 14.8171C211.758 14.0109 212.471 13.6075 213.254 13.6075H226.288V17.4304ZM200.997 69.032L198.186 48.2667L191.943 51.2339L190.226 69.032H185.385L188.9 13.6075H201.23L204.434 69.032H200.997ZM177.502 44.2864L168.914 45.1426L168.291 69.032H162.903L164.701 15.4044C164.701 14.8846 165.664 14.4541 167.587 14.114C169.514 13.7776 171.388 13.6075 173.208 13.6075H176.565C177.242 13.6075 177.878 13.7504 178.478 14.0374C179.075 14.3239 179.375 14.7278 179.375 15.2476L180.235 39.4463L177.502 44.2864ZM142.376 66.2215L137.459 69.032H129.965L125.358 65.7512V16.1038L128.715 13.6075H139.252L142.376 15.7945V66.2215ZM119.504 69.032H104.75V13.6075H112.324L110.684 62.6272L119.504 64.0345V69.032ZM91.093 67.4673V13.6075H96.0091L97.6498 67.4673H91.093ZM82.5054 70.5919H77.1986L69.548 25.7847H69.2339L67.7548 70.5919H63.7703L66.2714 13.6075H71.0308L78.9147 58.8037H79.4621V13.6075H84.0695L82.5054 70.5919ZM57.1369 69.032H52.6098L50.5796 47.3302H46.5993L43.0098 69.032H39.3388L42.8524 13.6075H57.1369V69.032ZM32.0013 64.5814L27.2419 69.032H16.8568V13.6075H25.8345C28.3351 13.6075 30.375 14.4137 31.9614 16.0278C33.5527 17.6409 34.3456 19.6982 34.3456 22.1945L32.0013 64.5814ZM337.075 60.9105L337.004 50.2076L336.994 48.8853L336.891 33.709L336.842 26.0759C336.838 26.0717 336.838 26.0717 336.842 26.0717V26.0626L336.744 11.5496V11.5411L336.703 5.73684L336.695 4.5357C336.654 4.48149 336.614 4.42834 336.56 4.37891C335.972 3.71988 334.83 3.28514 333.261 3.01621C324.544 1.52808 302.734 5.27073 290.023 5.27073C283.954 4.39699 276.81 2.68457 270.745 3.55406C248.901 4.81791 227.06 5.16763 205.21 6.60209L196.94 7.21116L199.979 4.54898L196.474 0.891903L191.185 7.69534C187.698 8.01369 184.207 8.36765 180.72 8.77529C168.919 9.64532 157.458 3.55407 145.657 2.68457C127.446 0.0760849 109.581 5.29306 91.3752 6.16255C73.5054 7.03683 55.9672 7.03683 38.0973 4.41878C32.7055 3.55406 27.3131 0.945045 21.9122 0.0760809C16.8834 -0.515984 12.0029 2.49643 7.07236 3.95746C2.84606 5.1942 0.0090351 9.1165 0 13.4863V26.4347C0.0090351 30.527 0.00903095 34.9011 0.00903095 39.2805V70.7258C0.00903095 72.6891 1.60878 74.2761 3.58534 74.2761H5.15426C6.27036 74.2761 7.55653 74.2761 8.99949 74.2846C23.2665 75.6074 37.0843 76.4764 51.2524 75.6074C114.301 72.1337 177.685 78.2159 240.743 73.8679C257.063 73.0521 273.09 73.7563 289.377 76.6741H289.382C290.328 76.8351 291.274 77.0148 292.223 77.2024C292.483 77.247 292.739 77.3012 292.999 77.3507C295.432 77.8343 297.858 77.9868 300.269 77.9284H300.277C301.475 77.897 302.666 77.8168 303.859 77.6956H303.863C308.475 77.2205 313.07 76.1671 317.664 75.3247C317.673 75.3247 317.682 75.3247 317.686 75.3199C317.69 75.3247 317.69 75.3247 317.695 75.3199C318.99 75.0829 320.285 74.8628 321.576 74.6795H321.585C325.054 74.1815 328.523 73.9354 332.015 74.2761H334.059C335.587 74.2761 336.681 74.5269 337.165 73.8993L337.075 60.9105Z" fill="#FFD800"/>
<path d="M293.628 72.1277C293.054 71.4378 292.49 70.985 291.692 71.2268L291.934 74.2121L292.4 74.194L293.418 74.1494L296.12 74.0415C295.183 73.5531 294.318 72.9568 293.628 72.1277Z" fill="#FFD800"/>
<path d="M7.93066 99.444C7.93066 98.0452 6.84485 96.9429 5.47896 96.9429C4.08011 96.9429 3.01078 98.0617 3.01078 99.444C3.01078 100.826 4.08011 101.945 5.47896 101.945C6.84485 101.945 7.93066 100.843 7.93066 99.444ZM3.14206 102.817V107.457H0.888062V95.0179H3.12611V96.252C3.71817 95.3798 4.7216 94.8367 5.92327 94.8367C8.16079 94.8367 10.2011 96.6304 10.2011 99.4605C10.2011 102.291 8.12784 104.084 5.93975 104.084C4.73861 104.084 3.73465 103.64 3.14206 102.817Z" fill="#FFD800"/>
<path d="M11.6824 95.0179H13.9204V96.3833C14.3477 95.3304 15.2369 94.8531 16.3721 94.8531C16.9642 94.8531 17.4909 95.0014 17.8693 95.1986L17.0471 97.4367C16.8 97.2559 16.3721 97.1241 15.8619 97.1241C14.6937 97.1241 13.9369 97.7162 13.9369 99.2139V103.903H11.6824V95.0179Z" fill="#FFD800"/>
<path d="M23.4641 91.1014H25.784L23.2993 93.9151H21.5885L23.4641 91.1014ZM20.272 98.473H25.0112C24.7147 97.3707 23.859 96.7617 22.6743 96.7617C21.5226 96.7617 20.634 97.4366 20.272 98.473ZM18.0175 99.477C18.0175 96.8935 20.0249 94.8372 22.6743 94.8372C25.3397 94.8372 27.2652 96.7617 27.2652 99.3951V100.25H20.2061C20.5022 101.403 21.4402 102.126 22.7562 102.126C23.8101 102.126 24.5169 101.666 24.9618 100.941L26.8209 102.028C25.9323 103.278 24.6817 104.084 22.7237 104.084C19.8607 104.084 18.0175 102.06 18.0175 99.477Z" fill="#FFD800"/>
<path d="M28.9437 98.7531H35.0317V100.711H28.9437V98.7531Z" fill="#FFD800"/>
<path d="M36.6283 99.4606C36.6283 96.8447 38.6516 94.8373 41.2851 94.8373C43.3414 94.8373 44.9209 95.972 45.6124 97.6504L43.5226 98.4896C43.1607 97.535 42.3379 96.9594 41.3175 96.9594C39.9521 96.9594 38.8828 98.0782 38.8828 99.4606C38.8828 100.81 39.9686 101.929 41.3345 101.929C42.3874 101.929 43.1772 101.287 43.5391 100.382L45.6618 101.254C44.905 102.9 43.4238 104.084 41.301 104.084C38.6357 104.084 36.6283 102.044 36.6283 99.4606Z" fill="#FFD800"/>
<path d="M52.9681 100.596V100.118H50.8783C49.5289 100.118 48.9862 100.546 48.9862 101.238C48.9862 101.879 49.43 102.209 50.3681 102.209C51.4544 102.209 52.5238 101.55 52.9681 100.596ZM46.6164 101.435C46.6164 99.5923 48.1465 98.4566 50.6152 98.4566H52.9511V98.3418C52.9511 97.3872 52.3096 96.7287 51.0266 96.7287C50.0226 96.7287 49.3482 97.1566 48.9368 97.8975L46.8471 96.8611C47.7516 95.6759 49.0516 94.8367 51.0425 94.8367C53.659 94.8367 55.1567 96.2026 55.1567 98.4406V103.903H52.9681V102.537C52.326 103.459 51.1084 104.084 49.7096 104.084C47.7681 104.084 46.6164 102.999 46.6164 101.435Z" fill="#FFD800"/>
<path d="M56.9004 95.0179H59.1714V96.1367C59.7475 95.3304 60.6686 94.8367 61.7708 94.8367C63.8771 94.8367 65.21 96.219 65.21 98.5389V103.903H62.8901V98.8849C62.8901 97.6179 62.2811 96.8281 61.0799 96.8281C60.0106 96.8281 59.1879 97.6179 59.1879 98.9997V103.903H56.9004V95.0179Z" fill="#FFD800"/>
<path d="M73.8656 99.4441C73.8656 98.0617 72.7963 96.943 71.3975 96.943C70.0316 96.943 68.9293 98.0453 68.9293 99.4441C68.9293 100.843 70.0316 101.945 71.3975 101.945C72.7963 101.945 73.8656 100.826 73.8656 99.4441ZM66.6753 99.4606C66.6753 96.6305 68.7156 94.8367 70.9861 94.8367C72.1543 94.8367 73.1253 95.3299 73.7338 96.1532V90.9203H75.9719V103.903H73.7338V102.686C73.1088 103.558 72.1054 104.084 70.9531 104.084C68.7651 104.084 66.6753 102.291 66.6753 99.4606Z" fill="#FFD800"/>
<path d="M77.7491 95.0179H80.0691V103.903H77.7491V95.0179ZM78.9009 91.0355C79.773 91.0355 80.3656 91.6605 80.3656 92.5168C80.3656 93.356 79.773 93.9645 78.9009 93.9645C78.0452 93.9645 77.4531 93.356 77.4531 92.5168C77.4531 91.6605 78.0622 91.0355 78.9009 91.0355Z" fill="#FFD800"/>
<path d="M88.7577 99.4441C88.7577 98.0617 87.6878 96.943 86.2895 96.943C84.9236 96.943 83.8213 98.0453 83.8213 99.4441C83.8213 100.843 84.9236 101.945 86.2895 101.945C87.6878 101.945 88.7577 100.826 88.7577 99.4441ZM81.5668 99.4606C81.5668 96.6305 83.6071 94.8367 85.8781 94.8367C87.0463 94.8367 88.0173 95.3299 88.6258 96.1532V90.9203H90.8639V103.903H88.6258V102.686C88.0003 103.558 86.9969 104.084 85.8452 104.084C83.6565 104.084 81.5668 102.291 81.5668 99.4606Z" fill="#FFD800"/>
<path d="M98.6633 100.596V100.118H96.5735C95.2246 100.118 94.6815 100.546 94.6815 101.238C94.6815 101.879 95.1258 102.209 96.0638 102.209C97.1496 102.209 98.2195 101.55 98.6633 100.596ZM92.3121 101.435C92.3121 99.5923 93.8423 98.4566 96.3104 98.4566H98.6468V98.3418C98.6468 97.3872 98.0053 96.7287 96.7218 96.7287C95.7178 96.7287 95.0434 97.1566 94.632 97.8975L92.5423 96.8611C93.4474 95.6759 94.7474 94.8367 96.7377 94.8367C99.3547 94.8367 100.852 96.2026 100.852 98.4406V103.903H98.6633V102.537C98.0218 103.459 96.8042 104.084 95.4053 104.084C93.4638 104.084 92.3121 102.999 92.3121 101.435Z" fill="#FFD800"/>
<path d="M101.79 95.0181H103.435V93.0926L105.673 91.7766V95.0181H108.01V97.0255H105.673V100.678C105.673 101.616 106.068 101.945 106.644 101.945C106.956 101.945 107.204 101.847 107.467 101.616L108.504 103.394C107.927 103.821 107.204 104.068 106.381 104.068C104.522 104.068 103.435 103.179 103.435 100.761V97.0255H101.79V95.0181Z" fill="#FFD800"/>
<path d="M115.942 99.444C115.942 98.0617 114.856 96.9594 113.506 96.9594C112.141 96.9594 111.071 98.0617 111.071 99.444C111.071 100.826 112.141 101.929 113.506 101.929C114.856 101.929 115.942 100.826 115.942 99.444ZM108.8 99.4605C108.8 96.8935 110.824 94.8367 113.49 94.8367C116.139 94.8367 118.196 96.8935 118.196 99.4605C118.196 102.011 116.172 104.084 113.49 104.084C110.824 104.084 108.8 102.011 108.8 99.4605Z" fill="#FFD800"/>
<path d="M122.869 95.0178H125.272L127.46 101.007L129.665 95.0178H132.018L128.53 103.903H126.275L122.869 95.0178Z" fill="#FFD800"/>
<path d="M134.552 98.473H139.291C138.995 97.3707 138.139 96.7622 136.955 96.7622C135.803 96.7622 134.914 97.4366 134.552 98.473ZM132.298 99.477C132.298 96.8935 134.305 94.8367 136.955 94.8367C139.621 94.8367 141.546 96.7622 141.546 99.3946V100.25H134.486C134.783 101.402 135.721 102.126 137.036 102.126C138.09 102.126 138.797 101.665 139.242 100.941L141.101 102.028C140.213 103.278 138.962 104.084 137.004 104.084C134.141 104.084 132.298 102.061 132.298 99.477Z" fill="#FFD800"/>
<path d="M143.027 95.0179H145.265V96.3833C145.692 95.3304 146.581 94.8531 147.717 94.8531C148.309 94.8531 148.835 95.0014 149.214 95.1986L148.391 97.4367C148.144 97.2559 147.717 97.1241 147.206 97.1241C146.038 97.1241 145.281 97.7162 145.281 99.2139V103.903H143.027V95.0179Z" fill="#FFD800"/>
<path d="M151.616 98.473H156.355C156.059 97.3707 155.203 96.7622 154.019 96.7622C152.867 96.7622 151.978 97.4366 151.616 98.473ZM149.362 99.477C149.362 96.8935 151.369 94.8367 154.019 94.8367C156.685 94.8367 158.609 96.7622 158.609 99.3946V100.25H151.551C151.847 101.402 152.785 102.126 154.101 102.126C155.154 102.126 155.862 101.665 156.306 100.941L158.165 102.028C157.277 103.278 156.026 104.084 154.068 104.084C151.205 104.084 149.362 102.061 149.362 99.477Z" fill="#FFD800"/>
<path d="M165.982 100.596V100.118H163.891C162.543 100.118 161.999 100.546 161.999 101.238C161.999 101.879 162.444 102.209 163.382 102.209C164.468 102.209 165.537 101.55 165.982 100.596ZM159.63 101.435C159.63 99.5923 161.16 98.4566 163.628 98.4566H165.965V98.3418C165.965 97.3872 165.323 96.7287 164.04 96.7287C163.036 96.7287 162.361 97.1566 161.95 97.8975L159.86 96.8611C160.765 95.6759 162.065 94.8367 164.056 94.8367C166.673 94.8367 168.17 96.2026 168.17 98.4406V103.903H165.982V102.537C165.34 103.459 164.122 104.084 162.723 104.084C160.782 104.084 159.63 102.999 159.63 101.435Z" fill="#FFD800"/>
<path d="M176.825 99.4441C176.825 98.0617 175.756 96.943 174.357 96.943C172.991 96.943 171.889 98.0453 171.889 99.4441C171.889 100.843 172.991 101.945 174.357 101.945C175.756 101.945 176.825 100.826 176.825 99.4441ZM169.635 99.4606C169.635 96.6305 171.675 94.8367 173.945 94.8367C175.114 94.8367 176.085 95.3299 176.694 96.1532V90.9203H178.932V103.903H176.694V102.686C176.068 103.558 175.065 104.084 173.913 104.084C171.724 104.084 169.635 102.291 169.635 99.4606Z" fill="#FFD800"/>
<path d="M187.554 99.444C187.554 98.0617 186.469 96.9594 185.119 96.9594C183.753 96.9594 182.683 98.0617 182.683 99.444C182.683 100.826 183.753 101.929 185.119 101.929C186.469 101.929 187.554 100.826 187.554 99.444ZM180.413 99.4605C180.413 96.8935 182.437 94.8367 185.102 94.8367C187.751 94.8367 189.808 96.8935 189.808 99.4605C189.808 102.011 187.784 104.084 185.102 104.084C182.437 104.084 180.413 102.011 180.413 99.4605Z" fill="#FFD800"/>
<path d="M191.306 95.0179H193.544V96.3833C193.972 95.3304 194.861 94.8531 195.995 94.8531C196.588 94.8531 197.115 95.0014 197.493 95.1986L196.67 97.4367C196.423 97.2559 195.995 97.1241 195.486 97.1241C194.317 97.1241 193.561 97.7162 193.561 99.2139V103.903H191.306V95.0179Z" fill="#FFD800"/>
<path d="M382.856 81.7417C382.668 82.625 382.247 83.333 381.283 83.4361C380.387 83.5301 379.862 83.0013 379.464 82.2169C378.679 80.6751 377.177 80.3886 375.663 80.2807C371.109 79.9581 366.828 80.9844 362.804 83.0911C359.81 84.6595 356.762 86.0493 353.36 86.4841C351.697 86.6993 350.043 86.6632 348.399 86.3719C348.111 86.3225 347.739 86.3225 347.569 86.1477C346.319 84.8344 345.001 85.6991 343.719 85.9951C339.21 87.0437 334.737 86.9231 330.322 85.5652C329.561 85.3319 329.152 85.4753 328.624 86.0222C323.855 90.9076 318.279 94.3723 311.382 95.2237C304.224 96.1113 298.419 93.2604 293.471 88.3395C292.53 87.4025 292.692 86.609 293.924 85.4079C292.265 84.3013 290.705 83.0911 289.384 81.6211H289.379C289.16 81.3787 288.945 81.1279 288.738 80.868C288.093 80.0527 287.479 79.214 287.004 78.2861C286.627 77.5468 286.618 76.8426 287.255 76.2335C287.882 75.6329 288.591 75.6281 289.316 76.0315C290.15 76.4982 290.966 76.9908 291.79 77.4708C292.046 77.5691 292.283 78.0129 292.561 77.5059C291.652 76.3589 290.907 75.1132 290.549 73.6744C290.312 72.7103 290.419 71.8004 291.418 71.3301C291.513 71.2854 291.607 71.2493 291.692 71.2275C292.49 70.9846 293.055 71.438 293.628 72.1278C294.318 72.9569 295.183 73.5533 296.12 74.0417C296.698 74.342 297.299 74.5976 297.895 74.8442C303.583 77.1615 309.409 79.0121 315.639 78.8021C322.73 78.5598 328.973 75.9603 334.482 71.5453C335.575 70.6668 335.612 70.6354 337.077 70.9713C336.629 68.2103 335.423 65.8267 333.98 63.5402C332.267 60.8286 330.26 58.3366 328.332 55.786C323.828 49.8074 321.56 43.1825 322.322 35.6441C322.712 31.8345 323.846 28.2576 325.764 24.9322C326.069 24.4076 326.428 23.8028 327.028 23.8565C328.193 23.9596 328.104 23.2197 328.185 22.4895C328.758 17.2545 330.305 12.3643 333.263 7.96318C333.267 7.95415 333.271 7.94936 333.276 7.94085C333.903 7.0129 334.58 6.18805 335.795 6.75301C336.916 7.28236 336.844 8.29057 336.561 9.32589C336.561 9.33492 336.557 9.33918 336.557 9.34822C336.378 9.98439 336.297 10.6477 336.171 11.2977C336.292 11.5533 336.055 11.7595 336.087 11.9971C336.153 11.7728 336.131 11.5039 336.409 11.3917C336.508 11.1547 336.602 10.9214 336.705 10.6838C338.095 7.43436 339.869 4.42248 342.429 1.91285C342.783 1.56261 343.146 1.22193 343.509 0.881258C344.275 0.151009 345.113 -0.418212 346.126 0.40664C347.125 1.22192 346.771 2.15468 346.22 3.07307C345.225 4.72277 344.557 6.49312 344.132 8.37136C342.953 13.5703 343.262 18.7426 344.279 23.9144C344.544 25.2277 344.697 26.5771 345.284 27.8144C345.53 28.0743 345.687 28.374 345.799 28.6881C345.799 28.6929 345.804 28.6966 345.804 28.7014C345.983 29.2036 346.064 29.7458 346.283 30.2299V30.2347C346.337 30.3554 346.404 30.4718 346.48 30.5839C347.063 31.6686 347.251 32.8926 347.69 34.0263C347.704 34.0757 347.717 34.1251 347.735 34.174C347.749 34.2096 347.762 34.25 347.775 34.2862C348.479 36.4557 349.636 38.4412 350.362 40.6054C350.079 38.3737 350.201 36.1283 350.227 33.8918V33.7483C350.231 33.6585 350.227 33.5692 350.231 33.4794C350.299 33.1972 350.348 32.915 350.362 32.6237C350.366 32.5424 350.375 32.4664 350.379 32.3856C350.393 32.2469 350.406 32.1076 350.42 31.9732V31.9599C350.429 31.8345 350.438 31.709 350.442 31.5831C350.447 31.5209 350.451 31.4534 350.46 31.3907C350.492 31.1664 350.55 30.9559 350.626 30.7455C350.631 30.7184 350.635 30.696 350.64 30.6737C350.644 30.6557 350.649 30.6381 350.657 30.6243C350.68 30.5573 350.72 30.4946 350.765 30.4361V30.4319C350.801 30.3867 350.837 30.3421 350.872 30.2926V30.2879C350.971 30.1582 351.052 30.0195 351.003 29.8356V29.8313C350.998 29.8085 350.989 29.7861 350.98 29.7638C350.948 29.6655 350.948 29.5666 350.962 29.4678C350.962 29.4545 350.966 29.4412 350.971 29.4279C350.976 29.4056 350.98 29.3875 350.984 29.3647V29.3466L350.989 29.3381C351.016 29.1946 351.039 29.0469 351.047 28.9034C351.043 28.8986 351.047 28.8986 351.047 28.8943C351.052 28.7375 351.039 28.5808 350.984 28.4234L350.98 28.4192C350.935 28.3251 350.899 28.2311 350.859 28.1322C350.854 28.1237 350.851 28.1189 350.846 28.1099C350.805 27.9935 350.783 27.8813 350.792 27.7649C350.792 27.724 350.796 27.6927 350.805 27.6528C350.841 27.5811 350.882 27.505 350.931 27.4376V27.4328C351.164 27.1017 351.486 26.8237 351.402 26.3486C351.455 26.1243 351.509 25.9048 351.563 25.6853C351.518 25.0757 351.962 24.5777 351.962 23.9819V23.9011C353.333 19.1997 355.202 14.7491 358.349 10.9171C360.701 8.04821 363.525 5.78041 366.837 4.11317C367.774 3.63803 368.689 3.41852 369.383 4.40919C370.069 5.3818 369.616 6.17476 368.85 6.91883C365.157 10.4643 363.472 15.0446 362.355 19.872C360.567 27.6167 361.231 35.3842 362.436 43.1246C363.431 49.5209 364.682 55.8806 365.049 62.3572C365.08 62.9306 365.269 63.1283 365.838 63.1236C366.264 63.1188 366.667 63.3521 366.869 63.7374C367.604 65.1628 368.953 65.7007 370.333 66.1891C372.408 66.9241 374.516 67.5874 376.402 68.7577C378.531 70.0795 379.993 71.8451 379.974 74.4987C379.97 75.1131 380.387 75.3597 380.736 75.6956C382.462 77.3538 383.372 79.2948 382.856 81.7417Z" fill="#FEFFFF"/>
<path d="M374.712 73.4411C374.282 73.1722 373.749 73.2259 373.533 73.7101C373.35 74.1273 373.852 74.2165 374.139 74.3196C375.147 74.6736 376.173 75.0095 377.187 75.3502C377.209 75.2832 377.227 75.2247 377.24 75.162C376.402 74.5843 375.577 73.9838 374.712 73.4411ZM374.712 73.4411C374.282 73.1722 373.749 73.2259 373.533 73.7101C373.35 74.1273 373.852 74.2165 374.139 74.3196C375.147 74.6736 376.173 75.0095 377.187 75.3502C377.209 75.2832 377.227 75.2247 377.24 75.162C376.402 74.5843 375.577 73.9838 374.712 73.4411ZM374.712 73.4411C374.282 73.1722 373.749 73.2259 373.533 73.7101C373.35 74.1273 373.852 74.2165 374.139 74.3196C375.147 74.6736 376.173 75.0095 377.187 75.3502C377.209 75.2832 377.227 75.2247 377.24 75.162C376.402 74.5843 375.577 73.9838 374.712 73.4411ZM374.712 73.4411C374.282 73.1722 373.749 73.2259 373.533 73.7101C373.35 74.1273 373.852 74.2165 374.139 74.3196C375.147 74.6736 376.173 75.0095 377.187 75.3502C377.209 75.2832 377.227 75.2247 377.24 75.162C376.402 74.5843 375.577 73.9838 374.712 73.4411ZM373.533 73.7101C373.35 74.1273 373.852 74.2165 374.139 74.3196C375.147 74.6736 376.173 75.0095 377.187 75.3502C377.209 75.2832 377.227 75.2247 377.24 75.162C376.402 74.5843 375.577 73.9838 374.712 73.4411C374.282 73.1722 373.749 73.2259 373.533 73.7101ZM381.126 81.8183C379.764 79.2544 377.487 78.7251 374.923 78.6406C369.872 78.4785 365.255 79.9129 360.872 82.2929C358.819 83.4137 356.659 84.2652 354.359 84.718C352.253 85.1299 350.155 85.2064 348.022 84.633C348.085 84.2742 348.416 84.2965 348.641 84.1892C348.901 84.068 349.179 83.983 349.447 83.866C353.701 82.0914 357.044 79.3123 359.057 75.086C360.468 72.1188 360.598 68.9815 360.083 65.8171C359.183 60.3041 357.434 55.0153 355.556 49.7713C355.202 48.7949 354.924 47.7814 354.453 46.863C351.984 42.0489 351.755 36.9531 352.303 31.7042C353.006 24.9455 354.705 18.5545 358.765 12.9745C360.948 9.98439 363.614 7.53269 366.972 5.8883C366.986 6.05837 366.999 6.2327 367.012 6.40755C361.034 13.5161 359.666 22.0144 359.707 30.9017C359.742 38.1989 361.257 45.3212 362.347 52.4967C363.203 58.1128 363.924 63.7512 363.538 69.4609C363.476 70.3665 363.265 71.2626 363.127 72.1592L362.051 75.3682C362.405 75.2657 362.566 75.1174 362.647 74.8798C365.009 72.0965 366.12 68.914 365.564 64.8716C367.348 67.1038 369.675 67.6012 371.813 68.4346C373.359 69.0357 374.964 69.5422 376.277 70.5945C377.805 71.8137 378.894 73.2663 378.159 75.3911C377.975 75.9109 378.437 75.8928 378.638 76.0315C379.674 76.758 380.566 77.6047 381.063 78.8016C381.458 79.7471 381.588 80.7112 381.126 81.8183ZM331.066 84.1084C330.676 83.9962 330.3 83.8527 329.915 83.7225C334.939 83.2612 338.525 79.4962 338.852 74.2075C339.036 71.1962 338.309 68.4527 337.077 65.8575C336.646 64.9386 336.149 64.0425 335.607 63.1549C333.778 60.1744 331.569 57.467 329.484 54.6704C325.491 49.319 323.366 43.4074 323.819 36.6661C324.061 33.0898 325.123 29.7415 326.593 26.5053C326.683 26.3034 326.908 26.1604 327.297 25.7437C326.58 28.137 326.226 30.2661 326.275 32.4441C326.401 37.9836 328.404 42.8876 331.313 47.4902C333.016 50.1794 334.988 52.6625 337.005 55.1546C337.229 55.432 337.458 55.71 337.682 55.9879C338.103 55.4947 337.628 55.1456 337.463 54.8049C337.305 54.4823 337.149 54.1549 336.997 53.8323C334.432 48.4447 332.146 42.9545 330.784 37.1184C329.027 29.5666 328.919 22.068 331.6 14.6773C332.411 12.4451 333.509 10.366 334.975 8.42078C332.734 18.9802 333.352 29.0378 336.893 38.656C338.171 42.1297 339.829 45.5492 341.873 48.9108C342.24 48.221 341.873 47.8441 341.725 47.4498C339.73 42.076 337.825 36.6794 336.844 31.0229C336.844 31.0186 336.839 31.0186 336.844 31.0144V31.0096C336.74 30.4319 336.651 29.8531 336.57 29.2706C335.979 24.9593 335.929 20.692 336.745 16.4971V16.4881C337.059 14.8878 337.494 13.2971 338.072 11.7191C339.345 8.26346 341.281 5.26488 343.885 2.68775C344.105 2.46825 344.351 2.27532 344.773 2.2041C344.401 3.0061 343.992 3.79534 343.666 4.61488C341.304 10.5765 341.411 16.7076 342.478 22.8839C343.675 29.8265 346.337 36.276 349.299 42.6096C352.065 48.5207 354.736 54.4732 356.699 60.7075C357.699 63.9032 358.416 67.1437 357.838 70.51C356.964 75.6643 353.938 79.3533 349.564 81.9256C343.755 85.3409 337.539 85.9638 331.066 84.1084ZM316.307 92.3999C308.235 95.4522 301.171 93.507 295.026 87.6624C295.56 87.4742 295.972 87.8463 296.434 87.9717C297.653 88.3039 298.773 88.9847 300.096 88.931C305.362 90.0604 310.4 89.6841 315.052 86.6047C310.046 88.0748 305.075 87.7076 300.149 86.3273C297.11 85.4753 294.444 84.1126 292.225 82.1494C290.773 80.868 289.514 79.3256 288.474 77.5021C292.234 79.8236 296.106 81.7731 300.27 82.8754H300.279C302.445 83.4493 304.69 83.7948 307.038 83.8442C307.451 83.8793 307.859 83.9202 308.267 83.9558C308.522 84.0276 308.754 83.9962 308.983 83.8081C308.683 83.5796 308.428 83.5259 308.15 83.6779C307.648 83.5482 307.168 83.3016 306.63 83.4361C305.698 83.1943 304.77 82.9344 303.865 82.6431H303.861C300.983 81.7104 298.249 80.4646 295.846 78.5061C294.385 77.3273 293.14 75.9736 292.4 74.1942C292.297 73.9476 292.203 73.6925 292.122 73.4278C292.297 73.4502 292.436 73.4231 292.508 73.4773C292.808 73.7101 293.113 73.9386 293.418 74.149C297.465 76.9818 302.175 78.1968 306.886 79.4064C310.53 80.3434 314.12 80.6256 317.665 80.2717C317.674 80.2717 317.683 80.2717 317.687 80.2669C317.692 80.2717 317.692 80.2717 317.696 80.2669C318.996 80.142 320.292 79.9267 321.578 79.6264H321.587C323.317 79.223 325.038 78.6719 326.75 77.9682C329.766 76.7352 332.55 75.0993 335.109 73.0872C335.365 72.8852 335.557 72.5849 336.108 72.536C334.886 74.8708 333.59 77.1163 332.156 79.2231C328.225 85.0177 323.304 89.7553 316.307 92.3999ZM350.478 40.7C350.496 40.691 350.509 40.6819 350.518 40.6819C350.536 40.6819 350.536 40.6958 350.518 40.7043C350.491 40.7271 350.424 40.7537 350.397 40.7C350.415 40.7133 350.442 40.7176 350.478 40.7ZM380.736 75.6956C380.386 75.3597 379.97 75.1131 379.974 74.4987C379.993 71.8451 378.531 70.0795 376.402 68.7577C374.515 67.5874 372.408 66.9241 370.333 66.1891C368.953 65.7007 367.604 65.1628 366.869 63.7374C366.667 63.3521 366.264 63.1188 365.838 63.1236C365.269 63.1283 365.08 62.9306 365.049 62.3572C364.682 55.8806 363.431 49.5204 362.436 43.1246C361.231 35.3842 360.567 27.6167 362.355 19.872C363.472 15.0446 365.156 10.4643 368.85 6.91883C369.616 6.17476 370.069 5.3818 369.383 4.40919C368.689 3.41852 367.774 3.63803 366.837 4.11317C363.525 5.78041 360.701 8.04821 358.349 10.9171C355.202 14.7485 353.333 19.1997 351.962 23.9011V23.9819C351.962 24.5777 351.518 25.0757 351.563 25.6853C351.509 25.9048 351.455 26.1243 351.402 26.3486C351.487 26.8237 351.164 27.1017 350.931 27.4328V27.4376C350.881 27.505 350.841 27.5811 350.805 27.6528C350.796 27.6927 350.792 27.724 350.792 27.7649C350.783 27.8813 350.805 27.9935 350.846 28.1099C350.85 28.1189 350.855 28.1232 350.859 28.1322C350.899 28.2305 350.935 28.3251 350.98 28.4192L350.984 28.4234C351.039 28.5808 351.052 28.7375 351.047 28.8938C351.047 28.8986 351.042 28.8986 351.047 28.9034C351.039 29.0469 351.016 29.1946 350.989 29.3381L350.984 29.3466V29.3647C350.98 29.3875 350.976 29.4051 350.971 29.4279C350.966 29.4412 350.962 29.4545 350.962 29.4678C350.948 29.5666 350.948 29.6655 350.98 29.7638C350.989 29.7861 350.998 29.8085 351.003 29.8313V29.8356C351.052 30.0195 350.971 30.1582 350.872 30.2879V30.2926C350.837 30.3421 350.801 30.3867 350.765 30.4319V30.4361C350.72 30.4946 350.68 30.5573 350.657 30.6243C350.649 30.6381 350.644 30.6557 350.639 30.6737C350.635 30.696 350.631 30.7184 350.626 30.7455C350.55 30.9559 350.491 31.1664 350.46 31.3907C350.451 31.4534 350.447 31.5209 350.442 31.5831C350.438 31.709 350.429 31.8345 350.42 31.9599V31.9732C350.407 32.1076 350.393 32.2469 350.379 32.3856C350.375 32.4664 350.366 32.5424 350.361 32.6237C350.348 32.915 350.299 33.1972 350.231 33.4794C350.227 33.5687 350.231 33.6585 350.227 33.7483V33.8918C350.2 36.1283 350.079 38.3737 350.361 40.6054C349.636 38.4412 348.479 36.4551 347.775 34.2862C347.762 34.25 347.749 34.2096 347.735 34.174C347.717 34.1251 347.704 34.0757 347.69 34.0263C347.251 32.8921 347.063 31.6686 346.48 30.5839C346.404 30.4718 346.337 30.3554 346.283 30.2347V30.2299C346.063 29.7458 345.983 29.2031 345.803 28.7014C345.803 28.6966 345.799 28.6929 345.799 28.6881C345.687 28.374 345.53 28.0743 345.284 27.8144C344.697 26.5771 344.544 25.2277 344.279 23.9144C343.262 18.7426 342.953 13.5703 344.132 8.37136C344.557 6.49312 345.225 4.72277 346.22 3.07307C346.771 2.15468 347.125 1.22192 346.126 0.40664C345.113 -0.418212 344.275 0.151009 343.509 0.881258C343.145 1.22193 342.783 1.56261 342.429 1.91285C339.869 4.42248 338.095 7.43436 336.705 10.6838C336.602 10.9214 336.508 11.1547 336.409 11.3917C336.131 11.5039 336.153 11.7728 336.086 11.9971C336.055 11.7595 336.292 11.5533 336.171 11.2977C336.297 10.6477 336.377 9.98439 336.557 9.34822C336.557 9.33918 336.561 9.33439 336.561 9.32589C336.844 8.29057 336.915 7.28236 335.795 6.75301C334.58 6.18805 333.903 7.0129 333.276 7.94085C333.271 7.94936 333.267 7.95415 333.263 7.96318C330.305 12.3643 328.758 17.2545 328.185 22.4895C328.104 23.2197 328.193 23.9596 327.028 23.8565C326.428 23.8028 326.069 24.4076 325.764 24.9322C323.846 28.2576 322.712 31.8345 322.322 35.6441C321.56 43.1825 323.828 49.8074 328.332 55.786C330.26 58.3366 332.267 60.8286 333.98 63.5402C335.423 65.8267 336.629 68.2103 337.077 70.9713C335.612 70.6354 335.575 70.6668 334.482 71.5453C328.973 75.9603 322.73 78.5598 315.639 78.8016C309.409 79.0121 303.583 77.1615 297.895 74.8442C297.299 74.5976 296.698 74.342 296.12 74.0417C295.183 73.5533 294.318 72.9569 293.628 72.1278C293.054 71.438 292.49 70.9846 291.692 71.227C291.607 71.2493 291.513 71.2854 291.418 71.3301C290.419 71.8004 290.311 72.7103 290.549 73.6744C290.907 75.1132 291.651 76.3589 292.561 77.5059C292.283 78.0129 292.046 77.5691 291.79 77.4708C290.966 76.9908 290.15 76.4982 289.317 76.0315C288.591 75.6281 287.882 75.6329 287.255 76.2335C286.618 76.8426 286.627 77.5468 287.003 78.2861C287.479 79.214 288.093 80.0521 288.738 80.868C288.945 81.1279 289.16 81.3787 289.379 81.6211H289.384C290.705 83.0911 292.265 84.3013 293.924 85.4079C292.692 86.609 292.53 87.4025 293.471 88.3395C298.419 93.2604 304.224 96.1113 311.382 95.2237C318.279 94.3723 323.855 90.9076 328.624 86.0222C329.152 85.4753 329.561 85.3319 330.322 85.5652C334.737 86.9231 339.21 87.0437 343.719 85.9951C345.001 85.6991 346.319 84.8344 347.569 86.1477C347.739 86.3225 348.111 86.3225 348.398 86.3719C350.043 86.6632 351.697 86.6993 353.36 86.4841C356.762 86.0493 359.81 84.6595 362.803 83.0911C366.828 80.9844 371.109 79.9576 375.663 80.2807C377.177 80.3886 378.679 80.6751 379.464 82.2169C379.862 83.0013 380.386 83.5301 381.283 83.4361C382.247 83.333 382.668 82.625 382.856 81.7417C383.372 79.2943 382.462 77.3538 380.736 75.6956ZM317.696 80.2669C318.996 80.142 320.292 79.9267 321.578 79.6264C320.287 79.8098 318.992 80.0298 317.696 80.2669ZM374.712 73.4411C374.282 73.1722 373.749 73.2259 373.533 73.7101C373.35 74.1273 373.852 74.2165 374.139 74.3196C375.147 74.6736 376.173 75.0095 377.187 75.3502C377.209 75.2832 377.227 75.2247 377.24 75.162C376.402 74.5843 375.577 73.9838 374.712 73.4411ZM374.712 73.4411C374.282 73.1722 373.749 73.2259 373.533 73.7101C373.35 74.1273 373.852 74.2165 374.139 74.3196C375.147 74.6736 376.173 75.0095 377.187 75.3502C377.209 75.2832 377.227 75.2247 377.24 75.162C376.402 74.5843 375.577 73.9838 374.712 73.4411ZM374.712 73.4411C374.282 73.1722 373.749 73.2259 373.533 73.7101C373.35 74.1273 373.852 74.2165 374.139 74.3196C375.147 74.6736 376.173 75.0095 377.187 75.3502C377.209 75.2832 377.227 75.2247 377.24 75.162C376.402 74.5843 375.577 73.9838 374.712 73.4411ZM374.712 73.4411C374.282 73.1722 373.749 73.2259 373.533 73.7101C373.35 74.1273 373.852 74.2165 374.139 74.3196C375.147 74.6736 376.173 75.0095 377.187 75.3502C377.209 75.2832 377.227 75.2247 377.24 75.162C376.402 74.5843 375.577 73.9838 374.712 73.4411Z" fill="#3F006F"/>
</svg>
